<svg xmlns="http://www.w3.org/2000/svg" xmlns:xlink="http://www.w3.org/1999/xlink" viewBox="656 1570 280 176">
  <defs>
    <style>
      .cls-1 {
        clip-path: url(#clip-Breadcrumbs);
      }

      .cls-2, .cls-3, .cls-4 {
        fill: none;
      }

      .cls-2 {
        stroke: #d6d7d9;
      }

      .cls-2, .cls-3 {
        stroke-width: 8px;
      }

      .cls-3 {
        stroke: #aeb0b5;
      }

      .cls-5 {
        fill: #5b616a;
        fill-rule: evenodd;
      }

      .cls-6 {
        fill: #f1f1f1;
      }
    </style>
    <clipPath id="clip-Breadcrumbs">
      <rect x="656" y="1570" width="280" height="176"/>
    </clipPath>
  </defs>
  <g id="Breadcrumbs" class="cls-1">
    <rect class="cls-6" x="656" y="1570" width="280" height="176"/>
    <g id="Group_3" data-name="Group 3" transform="translate(-429.5 1088)">
      <path id="Path_18" data-name="Path 18" class="cls-2" d="M0,1.5H44.175" transform="translate(1127.5 568.018)"/>
      <path id="Path_19" data-name="Path 19" class="cls-2" d="M0,1.5H61.251" transform="translate(1191.845 568.018)"/>
      <path id="Path_20" data-name="Path 20" class="cls-3" d="M0,1.5H49.62" transform="translate(1274.75 568.018)"/>
      <g id="ic_chevron_right" transform="translate(1170.19 559)">
        <rect id="rectangle" class="cls-4" width="21.407" height="21.407" transform="translate(0 0)"/>
        <path id="path" class="cls-5" d="M8.6,7.249,9.849,6,15.2,11.352,9.849,16.7,8.6,15.455l4.1-4.1Z" transform="translate(-0.929 -0.648)"/>
      </g>
      <g id="ic_chevron_right-2" data-name="ic_chevron_right" transform="translate(1253.096 559)">
        <rect id="rectangle-2" data-name="rectangle" class="cls-4" width="21.407" height="21.407" transform="translate(0 0)"/>
        <path id="path-2" data-name="path" class="cls-5" d="M8.6,7.249,9.849,6,15.2,11.352,9.849,16.7,8.6,15.455l4.1-4.1Z" transform="translate(-0.929 -0.648)"/>
      </g>
    </g>
  </g>
</svg>
