<svg xmlns="http://www.w3.org/2000/svg" xmlns:xlink="http://www.w3.org/1999/xlink" viewBox="1276 2200 280 176"><defs><style>.a{clip-path:url(#b);}.b{fill:#f1f1f1;}.c,.d,.e,.f{fill:none;}.c,.f{stroke:#aeb0b5;}.c{stroke-width:0.5px;}.d{stroke:#bdbfc3;}.d,.e,.f{stroke-width:6px;}.e{stroke:#d6d7d9;}.g{fill:#fff;}</style><clipPath id="b"><rect x="1276" y="2200" width="280" height="176"/></clipPath></defs><g id="a" class="a"><rect class="g" x="1276" y="2200" width="280" height="176"/><g transform="translate(1276 2203)"><path class="b" d="M4,0h97.158a4,4,0,0,1,4,4V88a4,4,0,0,1-4,4H4a4,4,0,0,1-4-4V4A4,4,0,0,1,4,0Z" transform="translate(87 39)"/><line class="c" x2="105.158" transform="translate(87 56.5)"/><line class="d" x2="53" transform="translate(95 48.5)"/><line class="e" x2="44.5" transform="translate(95 67.5)"/><line class="e" x2="89.5" transform="translate(95 77.5)"/><line class="e" x2="89.5" transform="translate(95 87.5)"/><line class="e" x2="21.5" transform="translate(95 117.5)"/><line class="f" x2="21.5" transform="translate(95 109.5)"/></g></g></svg>