<svg xmlns="http://www.w3.org/2000/svg" xmlns:xlink="http://www.w3.org/1999/xlink" viewBox="966 1570 280 176">
  <defs>
    <style>
      .cls-1 {
        clip-path: url(#clip-Checkbox);
      }

      .cls-2, .cls-3, .cls-7 {
        fill: none;
      }

      .cls-2 {
        stroke: #c9cacd;
      }

      .cls-2, .cls-3 {
        stroke-width: 6px;
      }

      .cls-3, .cls-4 {
        stroke: #d6d7d9;
      }

      .cls-4, .cls-6 {
        fill: #fff;
      }

      .cls-10, .cls-5 {
        fill: #d6d7d9;
      }

      .cls-5, .cls-8 {
        stroke: #5b616a;
        stroke-width: 0.5px;
      }

      .cls-8 {
        fill: #5b616a;
        fill-rule: evenodd;
      }

      .cls-10, .cls-9 {
        stroke: none;
      }

      .cls-11 {
        fill: #f1f1f1;
      }
    </style>
    <clipPath id="clip-Checkbox">
      <rect x="966" y="1570" width="280" height="176"/>
    </clipPath>
  </defs>
  <g id="Checkbox" class="cls-1">
    <rect class="cls-11" x="966" y="1570" width="280" height="176"/>
    <g id="Group_5" data-name="Group 5" transform="translate(948 1560)">
      <line id="Line_15" data-name="Line 15" class="cls-2" x2="94.379" transform="translate(119.63 98)"/>
      <line id="Line_18" data-name="Line 18" class="cls-3" x2="94.379" transform="translate(119.63 114)"/>
      <line id="Line_16" data-name="Line 16" class="cls-3" x2="94.379" transform="translate(119.63 82)"/>
      <g id="Rectangle_6" data-name="Rectangle 6" class="cls-4" transform="translate(101 77)">
        <rect class="cls-9" width="10" height="10" rx="2"/>
        <rect class="cls-7" x="0.5" y="0.5" width="9" height="9" rx="1.5"/>
      </g>
      <g id="Rectangle_7" data-name="Rectangle 7" class="cls-5" transform="translate(101 93)">
        <rect class="cls-9" width="10" height="10" rx="2"/>
        <rect class="cls-7" x="0.25" y="0.25" width="9.5" height="9.5" rx="1.75"/>
      </g>
      <g id="Path_22" data-name="Path 22" class="cls-6" transform="translate(101 108.691)">
        <path class="cls-9" d="M 7.5 9.5 L 2.5 9.5 C 1.397199988365173 9.5 0.5 8.602800369262695 0.5 7.5 L 0.5 2.5 C 0.5 1.397199988365173 1.397199988365173 0.5 2.5 0.5 L 7.5 0.5 C 8.602800369262695 0.5 9.5 1.397199988365173 9.5 2.5 L 9.5 7.5 C 9.5 8.602800369262695 8.602800369262695 9.5 7.5 9.5 Z"/>
        <path class="cls-10" d="M 7.5 9 C 8.327099800109863 9 9 8.327099800109863 9 7.5 L 9 2.5 C 9 1.672899961471558 8.327099800109863 1 7.5 1 L 2.5 1 C 1.672899961471558 1 1 1.672899961471558 1 2.5 L 1 7.5 C 1 8.327099800109863 1.672899961471558 9 2.5 9 L 7.5 9 M 7.5 10 L 2.5 10 C 1.119289994239807 10 0 8.880709648132324 0 7.5 L 0 2.5 C 0 1.119289994239807 1.119289994239807 0 2.5 0 L 7.5 0 C 8.880709648132324 0 10 1.119289994239807 10 2.5 L 10 7.5 C 10 8.880709648132324 8.880709648132324 10 7.5 10 Z"/>
      </g>
    </g>
    <g id="ic_check" transform="translate(721 1576.182)">
      <rect id="rectangle" class="cls-7" width="8" height="8" transform="translate(329 78)"/>
      <path id="path" class="cls-8" d="M5.267,9.133l-1.4-1.4L3.4,8.2l1.867,1.867,4-4L8.8,5.6Z" transform="translate(326.733 74.267)"/>
    </g>
  </g>
</svg>
