<svg xmlns="http://www.w3.org/2000/svg" xmlns:xlink="http://www.w3.org/1999/xlink" viewBox="1276 1570 280 176"><defs><style>.a{clip-path:url(#b);}.b{fill:#f1f1f1;}.c,.d,.g,.h{fill:none;}.c{stroke:#d6d7d9;opacity:0.7;}.c,.f,.g{stroke-width:4px;}.e{fill:#aeb0b5;}.f{fill:#5b616a;}.f,.g{stroke:#5b616a;opacity:0.3;}.i{fill:#94979e;fill-rule:evenodd;}.j,.k{stroke:none;}.k{fill:#d6d7d9;}.l{fill:#fff;}</style><clipPath id="b"><rect x="1276" y="1570" width="280" height="176"/></clipPath></defs><g id="a" class="a"><rect class="l" x="1276" y="1570" width="280" height="176"/><g transform="translate(1297 1580.016)"><g transform="translate(28 30)"><rect class="b" width="181.746" height="12.989" transform="translate(0 17.048)"/><rect class="b" width="181.746" height="12.989" transform="translate(0 43.027)"/><rect class="b" width="181.746" height="12.989" transform="translate(0 69.005)"/><g transform="translate(7.306 23.949)"><line class="c" x2="51.551"/><path class="c" d="M0,0H28.82" transform="translate(100.666)"/><path class="c" d="M0,0H17.454" transform="translate(100.666 12.989)"/><path class="c" d="M0,0H25.573" transform="translate(100.666 25.978)"/><path class="c" d="M0,0H35.314" transform="translate(100.666 38.968)"/><path class="c" d="M0,0H17.454" transform="translate(100.666 51.957)"/><path class="c" d="M0,0H25.573" transform="translate(100.666 64.134)"/><line class="c" x2="75.906" transform="translate(0 12.989)"/><path class="c" d="M0,0H71.847" transform="translate(0 25.978)"/><path class="c" d="M0,0H71.847" transform="translate(0.812 51.957)"/><path class="c" d="M0,0H71.847" transform="translate(0.812 64.134)"/><path class="c" d="M0,0H58.857" transform="translate(0.812 38.968)"/></g><g class="d"><path class="j" d="M0,0H181.746V94.984H0Z"/><path class="k" d="M 181.2459869384766 94.483642578125 L 181.2459869384766 0.5000069141387939 L 0.5000085830688477 0.5000069141387939 L 0.5000085830688477 94.483642578125 L 181.2459869384766 94.483642578125 M 181.7459869384766 94.983642578125 L 8.567116310587153e-06 94.983642578125 L 8.567116310587153e-06 6.921941803739173e-06 L 181.7459869384766 6.921941803739173e-06 L 181.7459869384766 94.983642578125 Z"/></g><rect class="e" width="181.746" height="17.048"/><path class="f" d="M0,0H75.316" transform="translate(7.306 8.524)"/><line class="g" x2="16.642" transform="translate(108.785 8.524)"/></g><g transform="translate(110.806 33.299)"><rect class="h" width="9.69" height="9.69" transform="translate(0 0)"/><path class="i" d="M7,10l2.019,2.019L11.038,10Z" transform="translate(-4.174 -5.962)"/></g></g></g></svg>