<svg xmlns="http://www.w3.org/2000/svg" xmlns:xlink="http://www.w3.org/1999/xlink" viewBox="966 2403 280 176"><defs><style>.a{clip-path:url(#b);}.b{fill:#f1f1f1;}.c,.d{fill:#aeb0b5;}.c{stroke:#fff;stroke-width:6px;}.d{stroke:#d6d7d9;stroke-width:2px;}.e{fill:#fff;}</style><clipPath id="b"><rect x="966" y="2403" width="280" height="176"/></clipPath></defs><g id="a" class="a"><rect class="e" x="966" y="2403" width="280" height="176"/><rect class="b" width="227" height="25" transform="translate(993 2530)"/><path class="c" d="M0,0H41.252" transform="translate(1024.571 2538.5)"/><path class="d" d="M0,0H21.162" transform="translate(1106.193 2536.5)"/><path class="d" d="M0,0H16.516" transform="translate(1141.193 2536.5)"/><path class="d" d="M0,0H21.162" transform="translate(1071.193 2536.5)"/><path class="d" d="M0,0H19.078" transform="translate(1106.193 2540.5)"/><path class="d" d="M0,0H11.689" transform="translate(1141.193 2540.5)"/><path class="d" d="M0,0H15.069" transform="translate(1071.193 2540.5)"/><path class="d" d="M0,0H20.608" transform="translate(1106.193 2544.5)"/><path class="d" d="M0,0H15.385" transform="translate(1141.193 2544.5)"/><path class="d" d="M0,0H18.086" transform="translate(1071.193 2544.5)"/><path class="d" d="M0,0H14.335" transform="translate(1106.193 2548.5)"/><path class="d" d="M0,0H14.4" transform="translate(1141.193 2548.5)"/><path class="d" d="M0,0H16.867" transform="translate(1071.193 2548.5)"/></g></svg>