<?xml version="1.0" encoding="UTF-8"?>
<svg width="144px" height="40px" viewBox="0 0 144 40" version="1.1" xmlns="http://www.w3.org/2000/svg" xmlns:xlink="http://www.w3.org/1999/xlink">
    <!-- Generator: Sketch 51.2 (57519) - http://www.bohemiancoding.com/sketch -->
    <title>Knapper</title>
    <desc>Created with Sketch.</desc>
    <defs></defs>
    <g id="Page-1" stroke="none" stroke-width="1" fill="none" fill-rule="evenodd">
        <g id="Overview_illustrationer" transform="translate(-176.000000, -808.000000)">
            <g id="Knapper" transform="translate(176.000000, 808.000000)">
                <rect id="Button---Virk" stroke="#1A1A1A" stroke-width="2" fill="#454545" x="1" y="1" width="142" height="38" rx="4"></rect>
                <path d="M61.144,26 L57.752,20.784 L56.216,22.544 L56.216,26 L54.408,26 L54.408,14.832 L56.216,14.832 L56.216,20.496 L56.28,20.496 L57.88,18.464 L60.888,14.832 L63,14.832 L59.016,19.536 L63.32,26 L61.144,26 Z M66.424,26 L64.68,26 L64.68,17.68 L66.424,17.68 L66.424,19.056 L66.504,19.056 C66.856,18.16 67.56,17.488 68.84,17.488 C70.536,17.488 71.544,18.672 71.544,20.72 L71.544,26 L69.8,26 L69.8,20.944 C69.8,19.648 69.304,18.992 68.232,18.992 C67.32,18.992 66.424,19.456 66.424,20.432 L66.424,26 Z M81.032,26 L80.056,26 C79.144,26 78.664,25.424 78.552,24.608 L78.472,24.608 C78.152,25.648 77.256,26.192 76.04,26.192 C74.328,26.192 73.352,25.216 73.352,23.712 C73.352,22.064 74.584,21.216 76.904,21.216 L78.408,21.216 L78.408,20.512 C78.408,19.504 77.864,18.912 76.696,18.912 C75.72,18.912 75.128,19.392 74.712,20.048 L73.672,19.104 C74.216,18.176 75.192,17.488 76.808,17.488 C78.952,17.488 80.152,18.544 80.152,20.4 L80.152,24.576 L81.032,24.576 L81.032,26 Z M76.536,24.864 C77.608,24.864 78.408,24.352 78.408,23.536 L78.408,22.336 L76.936,22.336 C75.72,22.336 75.128,22.736 75.128,23.456 L75.128,23.744 C75.128,24.48 75.672,24.864 76.536,24.864 Z M82.744,29.2 L82.744,17.68 L84.488,17.68 L84.488,19.056 L84.568,19.056 C84.92,18.064 85.8,17.488 86.904,17.488 C89,17.488 90.216,19.104 90.216,21.84 C90.216,24.576 89,26.192 86.904,26.192 C85.8,26.192 84.92,25.6 84.568,24.624 L84.488,24.624 L84.488,29.2 L82.744,29.2 Z M86.376,24.688 C87.576,24.688 88.376,23.84 88.376,22.56 L88.376,21.12 C88.376,19.84 87.576,18.992 86.376,18.992 C85.32,18.992 84.488,19.568 84.488,20.416 L84.488,23.264 C84.488,24.112 85.32,24.688 86.376,24.688 Z" id="Knap" fill="#FFFFFF"></path>
            </g>
        </g>
    </g>
</svg>