<svg xmlns="http://www.w3.org/2000/svg" xmlns:xlink="http://www.w3.org/1999/xlink" viewBox="1276 1780 280 176"><defs><style>.a{clip-path:url(#b);}.b,.c,.g{fill:none;}.b{stroke:#aeb0b5;}.b,.c{stroke-width:6px;}.c,.e{stroke:#d6d7d9;}.d{fill:#aeb0b5;}.e{fill:#d6d7d9;stroke-width:0.5px;}.f{stroke:none;}.h{fill:#fff;}</style><clipPath id="b"><rect x="1276" y="1780" width="280" height="176"/></clipPath></defs><g id="a" class="a"><rect class="h" x="1276" y="1780" width="280" height="176"/><path class="b" d="M58.87,0" transform="translate(1371 1843)"/><line class="b" x2="101.87" transform="translate(1371 1828)"/><line class="b" x2="101.87" transform="translate(1371 1844)"/><line class="b" x2="101.87" transform="translate(1371 1860)"/><line class="c" x2="92.37" transform="translate(1380.5 1876)"/><line class="c" x2="92.37" transform="translate(1380.5 1892)"/><line class="b" x2="101.87" transform="translate(1371 1908)"/><circle class="d" cx="3" cy="3" r="3" transform="translate(1360 1825)"/><circle class="d" cx="3" cy="3" r="3" transform="translate(1360 1841)"/><circle class="d" cx="3" cy="3" r="3" transform="translate(1360 1857)"/><g class="e" transform="translate(1371 1873)"><circle class="f" cx="3" cy="3" r="3"/><circle class="g" cx="3" cy="3" r="2.75"/></g><g class="e" transform="translate(1371 1889)"><circle class="f" cx="3" cy="3" r="3"/><circle class="g" cx="3" cy="3" r="2.75"/></g><circle class="d" cx="3" cy="3" r="3" transform="translate(1360 1905)"/></g></svg>