<svg xmlns="http://www.w3.org/2000/svg" xmlns:xlink="http://www.w3.org/1999/xlink" viewBox="966 1990 280 176"><defs><style>.a{clip-path:url(#b);}.b,.c,.h{fill:none;}.b{stroke:#c9cacd;}.b,.c{stroke-width:6px;}.c,.d{stroke:#d6d7d9;}.d,.e,.j{fill:#fff;}.f{fill:#aeb0b5;}.g,.i{stroke:none;}.i{fill:#5b616a;}</style><clipPath id="b"><rect x="966" y="1990" width="280" height="176"/></clipPath></defs><g id="a" class="a"><rect class="j" x="966" y="1990" width="280" height="176"/><g transform="translate(966 1990)"><line class="b" x2="94.379" transform="translate(101.63 88)"/><line class="c" x2="94.379" transform="translate(101.63 104)"/><line class="c" x2="94.379" transform="translate(101.63 72)"/><g class="d" transform="translate(87 68)"><circle class="g" cx="4" cy="4" r="4"/><circle class="h" cx="4" cy="4" r="3.5"/></g><g class="e" transform="translate(87 84)"><path class="g" d="M 4 7.5 C 2.070090055465698 7.5 0.5 5.929910182952881 0.5 4 C 0.5 2.070090055465698 2.070090055465698 0.5 4 0.5 C 5.929910182952881 0.5 7.5 2.070090055465698 7.5 4 C 7.5 5.929910182952881 5.929910182952881 7.5 4 7.5 Z"/><path class="i" d="M 4 7 C 5.654210090637207 7 7 5.654210090637207 7 4 C 7 2.345789909362793 5.654210090637207 1 4 1 C 2.345789909362793 1 1 2.345789909362793 1 4 C 1 5.654210090637207 2.345789909362793 7 4 7 M 4 8 C 1.790860056877136 8 0 6.209139823913574 0 4 C 0 1.790860056877136 1.790860056877136 0 4 0 C 6.209139823913574 0 8 1.790860056877136 8 4 C 8 6.209139823913574 6.209139823913574 8 4 8 Z"/></g><path class="f" d="M2.5,0A2.5,2.5,0,1,1,0,2.5,2.5,2.5,0,0,1,2.5,0Z" transform="translate(88.5 85.5)"/><g class="d" transform="translate(87 100)"><circle class="g" cx="4" cy="4" r="4"/><circle class="h" cx="4" cy="4" r="3.5"/></g></g></g></svg>