<svg xmlns="http://www.w3.org/2000/svg" xmlns:xlink="http://www.w3.org/1999/xlink" viewBox="1276 2403 280 176">
  <defs>
    <style>
      .cls-1 {
        clip-path: url(#clip-Search);
      }

      .cls-2 {
        fill: #aeb0b5;
      }

      .cls-3, .cls-8 {
        fill: #fff;
      }

      .cls-4 {
        fill: none;
      }

      .cls-5, .cls-7 {
        fill: #d6d7d9;
      }

      .cls-5 {
        stroke: #fff;
        stroke-width: 0.5px;
      }

      .cls-6, .cls-7, .cls-8 {
        stroke: none;
      }

      .cls-9 {
        fill: #f1f1f1;
      }
    </style>
    <clipPath id="clip-Search">
      <rect x="1276" y="2403" width="280" height="176"/>
    </clipPath>
  </defs>
  <g id="Search" class="cls-1">
    <rect class="cls-9" x="1276" y="2403" width="280" height="176"/>
    <g id="Group_28" data-name="Group 28" transform="translate(1277 2395)">
      <path id="Rectangle_29" data-name="Rectangle 29" class="cls-2" d="M0,0H20a2,2,0,0,1,2,2V14a2,2,0,0,1-2,2H0a0,0,0,0,1,0,0V0A0,0,0,0,1,0,0Z" transform="translate(175 88)"/>
      <g id="Path_35" data-name="Path 35" class="cls-3" transform="translate(81 88)">
        <path class="cls-6" d="M 92.71308135986328 15.75 L 0.249995693564415 15.75 L 0.249995693564415 0.25 L 92.71308135986328 0.25 L 92.71308135986328 15.75 Z"/>
        <path class="cls-7" d="M 92.46308135986328 15.5 L 92.46308135986328 0.5 L 0.4999956786632538 0.5 L 0.4999956786632538 15.5 L 92.46308135986328 15.5 M 92.96308135986328 16 L -4.311236352805281e-06 16 L -4.311236352805281e-06 0 L 92.96308135986328 0 L 92.96308135986328 16 Z"/>
      </g>
      <g id="Symbol_2_1" data-name="Symbol 2 – 1" transform="translate(-4)">
        <g id="Path_98" data-name="Path 98" class="cls-4" transform="translate(186 92)">
          <path class="cls-6" d="M3.5,0A3.5,3.5,0,1,1,0,3.5,3.5,3.5,0,0,1,3.5,0Z"/>
          <path class="cls-8" d="M 3.5 6.5 C 5.154210090637207 6.5 6.5 5.154210090637207 6.5 3.5 C 6.5 1.845790028572083 5.154210090637207 0.5 3.5 0.5 C 1.845790028572083 0.5 0.5 1.845790028572083 0.5 3.5 C 0.5 5.154210090637207 1.845790028572083 6.5 3.5 6.5 M 3.5 7 C 1.567000031471252 7 -4.440892098500626e-16 5.433000087738037 -4.440892098500626e-16 3.5 C -4.440892098500626e-16 1.567000031471252 1.567000031471252 -4.440892098500626e-16 3.5 -4.440892098500626e-16 C 5.433000087738037 -4.440892098500626e-16 7 1.567000031471252 7 3.5 C 7 5.433000087738037 5.433000087738037 7 3.5 7 Z"/>
        </g>
        <path id="Path_96" data-name="Path 96" class="cls-5" d="M0,0,1.354,1.332,2.708,2.663" transform="translate(191.625 97.656)"/>
      </g>
    </g>
  </g>
</svg>
