<svg xmlns="http://www.w3.org/2000/svg" xmlns:xlink="http://www.w3.org/1999/xlink" viewBox="1276 2403 280 176"><defs><style>.a{clip-path:url(#b);}.b{fill:#aeb0b5;}.c{fill:none;}.d,.f{fill:#d6d7d9;}.d{stroke:#fff;stroke-width:0.5px;}.e,.f,.g{stroke:none;}.g,.h{fill:#fff;}</style><clipPath id="b"><rect x="1276" y="2403" width="280" height="176"/></clipPath></defs><g id="a" class="a"><rect class="h" x="1276" y="2403" width="280" height="176"/><g transform="translate(1277 2395)"><path class="b" d="M0,0H20a2,2,0,0,1,2,2V14a2,2,0,0,1-2,2H0a0,0,0,0,1,0,0V0A0,0,0,0,1,0,0Z" transform="translate(175 88)"/><g class="c" transform="translate(81 88)"><path class="e" d="M0,0H92.963V16H0Z"/><path class="f" d="M 92.46308135986328 15.5 L 92.46308135986328 0.5 L 0.4999956786632538 0.5 L 0.4999956786632538 15.5 L 92.46308135986328 15.5 M 92.96308135986328 16 L -4.311236352805281e-06 16 L -4.311236352805281e-06 0 L 92.96308135986328 0 L 92.96308135986328 16 Z"/></g><g transform="translate(-4)"><g class="c" transform="translate(186 92)"><path class="e" d="M3.5,0A3.5,3.5,0,1,1,0,3.5,3.5,3.5,0,0,1,3.5,0Z"/><path class="g" d="M 3.5 6.5 C 5.154210090637207 6.5 6.5 5.154210090637207 6.5 3.5 C 6.5 1.845790028572083 5.154210090637207 0.5 3.5 0.5 C 1.845790028572083 0.5 0.5 1.845790028572083 0.5 3.5 C 0.5 5.154210090637207 1.845790028572083 6.5 3.5 6.5 M 3.5 7 C 1.567000031471252 7 -4.440892098500626e-16 5.433000087738037 -4.440892098500626e-16 3.5 C -4.440892098500626e-16 1.567000031471252 1.567000031471252 -4.440892098500626e-16 3.5 -4.440892098500626e-16 C 5.433000087738037 -4.440892098500626e-16 7 1.567000031471252 7 3.5 C 7 5.433000087738037 5.433000087738037 7 3.5 7 Z"/></g><path class="d" d="M0,0,1.354,1.332,2.708,2.663" transform="translate(191.625 97.656)"/></g></g></g></svg>