<svg xmlns="http://www.w3.org/2000/svg" xmlns:xlink="http://www.w3.org/1999/xlink" viewBox="656 1780 280 176"><defs><style>.a{clip-path:url(#b);}.b,.k{fill:#f1f1f1;}.c,.d,.e,.g,.h{fill:none;}.d{stroke:#d6d7d9;}.d,.e{stroke-width:0.5px;}.e,.g{stroke:#f1f1f1;}.f,.i{fill:#979797;}.f{stroke:#aeb0b5;}.f,.g{stroke-width:4px;}.i{fill-rule:evenodd;}.j,.k{stroke:none;}.l{fill:#fff;}</style><clipPath id="b"><rect x="656" y="1780" width="280" height="176"/></clipPath></defs><g id="a" class="a"><rect class="l" x="656" y="1780" width="280" height="176"/><rect class="b" width="57.21" height="12" transform="translate(697.469 1822)"/><g class="c" transform="translate(697.469 1822.25)"><path class="j" d="M0,0H57.21V58.75H0Z"/><path class="k" d="M 56.7099609375 58.25 L 56.7099609375 0.5 L 0.5000004768371582 0.5 L 0.5000004768371582 58.25 L 56.7099609375 58.25 M 57.2099609375 58.75 L 4.68749988158379e-07 58.75 L 4.68749988158379e-07 -3.552713678800501e-15 L 57.2099609375 -3.552713678800501e-15 L 57.2099609375 58.75 Z"/></g><line class="d" x2="227.102" transform="translate(682 1822.25)"/><line class="e" x2="57.21" transform="translate(697.469 1845.25)"/><line class="e" x2="57.21" transform="translate(697.469 1869.25)"/><line class="d" x2="227.102" transform="translate(682 1834.25)"/><line class="e" x2="57.21" transform="translate(697.469 1857.25)"/><path class="f" d="M0,0H30" transform="translate(703.471 1828.25)"/><path class="f" d="M0,0H30" transform="translate(762.471 1828.25)"/><path class="f" d="M0,0H30" transform="translate(816.471 1828.25)"/><path class="g" d="M0,0H43.129" transform="translate(705.429 1840)"/><path class="g" d="M0,0H38.657" transform="translate(705.429 1851.25)"/><path class="g" d="M0,0H30.538" transform="translate(705.429 1863.25)"/><path class="g" d="M0,0H38.657" transform="translate(705.429 1875.25)"/><g transform="translate(156 1746.75)"><rect class="h" width="7.123" height="7.123" transform="translate(588 78)"/><path class="i" d="M9.146,8.6,7.781,9.965,6.415,8.6,6,9.015,7.781,10.8,9.561,9.015Z" transform="translate(583.781 71.952)"/></g><g transform="translate(207 1746.75)"><rect class="h" width="7.123" height="7.123" transform="translate(588 78)"/><path class="i" d="M9.146,8.6,7.781,9.965,6.415,8.6,6,9.015,7.781,10.8,9.561,9.015Z" transform="translate(583.781 71.952)"/></g><g transform="translate(261 1746.75)"><rect class="h" width="7.123" height="7.123" transform="translate(588 78)"/><path class="i" d="M9.146,8.6,7.781,9.965,6.415,8.6,6,9.015,7.781,10.8,9.561,9.015Z" transform="translate(583.781 71.952)"/></g><line class="e" y2="11.5" transform="translate(807.5 1822.5)"/><line class="e" y2="11.5" transform="translate(861.5 1822.5)"/></g></svg>