<?xml version="1.0" encoding="utf-8"?>
<!-- Generator: Adobe Illustrator 17.1.0, SVG Export Plug-In . SVG Version: 6.00 Build 0)  -->
<!DOCTYPE svg PUBLIC "-//W3C//DTD SVG 1.1//EN" "http://www.w3.org/Graphics/SVG/1.1/DTD/svg11.dtd">
<svg version="1.1" id="Layer_1" xmlns="http://www.w3.org/2000/svg" xmlns:xlink="http://www.w3.org/1999/xlink" x="0px" y="0px"
	 viewBox="0 0 110 130" width="110" height="130"  enable-background="new 0 0 110 130" xml:space="preserve">
<g>
	<g>
		<path fill="#EAEAEA" d="M53.5,18.47l0.07,0.03l-6.02,15.95l-15.8-6.15l8.99-14.9c0.07-0.15,0.14-0.29,0.22-0.44
			c1.8-3.34,5.97-4.59,9.31-2.79C53.28,11.8,54.59,15.35,53.5,18.47z"/>
	</g>
	<g>
		<g>
			<g>
				<path fill="#FF8C40" d="M47.5,35.96c-1.61,2.98-4.68,4.67-7.84,4.67c-1.43,0-2.88-0.34-4.22-1.07
					c-4.33-2.33-5.94-7.73-3.61-12.06c1.61-2.98,4.68-4.67,7.84-4.67c1.43,0,2.88,0.34,4.22,1.07
					C48.22,26.23,49.83,31.63,47.5,35.96z"/>
			</g>
		</g>
	</g>
	<g>
		<path fill="#EAEAEA" d="M33.29,61.76L22.17,79.95l-0.18-0.1c-1.97,3.09-6.04,4.11-9.24,2.26c-3.29-1.9-4.41-6.11-2.5-9.39
			c0.12-0.21,0.26-0.42,0.4-0.61l6.43-15.07L33.29,61.76z"/>
	</g>
	<g>
		<g>
			<g>
				<path fill="#FF8C40" d="M31.38,66.31c-1.7,2.27-4.29,3.47-6.92,3.47c-1.79,0-3.6-0.55-5.15-1.7c-3.81-2.85-4.6-8.25-1.76-12.07
					c1.69-2.27,4.29-3.47,6.92-3.47c1.79,0,3.59,0.56,5.14,1.71C33.43,57.09,34.22,62.49,31.38,66.31z"/>
			</g>
		</g>
	</g>
	<g>
		<g>
			<path fill="#414141" d="M88.54,67.98c0-3.87-2.62-6.9-5.96-6.9c-3.04,0-5.37,1.96-5.96,4.84v-4.36c0-5.01-2.64-8.24-6.73-8.24
				c-3.26,0-5.25,2.05-6.15,4.69V54.1c0-3.54-3.07-6.53-6.71-6.53c-3.63,0-6.7,2.97-6.72,6.5v-6.66l-0.04-0.19l-4.16-17.58
				l-0.03-0.12l-0.04-0.11c-0.12-0.32-0.43-1.1-0.56-1.37l-0.1-0.2l-0.14-0.17c-1.38-1.61-3.09-2.46-4.92-2.46
				c-0.93,0-1.88,0.21-2.91,0.64c-2.24,0.87-3.92,3.58-3.7,5.97c0.03,0.59,0.13,1.08,0.29,1.46l3.44,17.98v26.63l-1.26,1.15
				l-5.79-10.66c-0.06-4.07-0.62-10.62-3.44-12.03c-0.76-0.39-1.55-0.58-2.35-0.58c-2.82,0-5.12,2.51-5.12,5.6
				c0,0.07-0.13,13.33-0.13,13.33v0.23l0.06,0.21l4.38,16.73l0.06,0.21l0.1,0.19l11.67,20.61l0.27,15.47l0.03,1.65h46.29v-23.5
				l6.34-20.85l0.07-0.24v-0.25C88.62,85.16,88.54,68.14,88.54,67.98z M80.53,128.32H37.57l-0.28-15.89L25.41,91.44l-4.38-16.72
				l0.13-13.35c0-2.15,1.51-3.92,3.44-3.92c0.51,0,1.05,0.12,1.6,0.4c2.44,1.22,2.52,10.97,2.52,10.97l7.01,12.9l3.39-3.09V51.1
				l-3.53-18.44c-0.08,0-0.13-0.24-0.17-0.48c-0.03-0.24-0.04-0.48-0.04-0.48c-0.18-1.77,1.17-3.73,2.66-4.29
				c0.58-0.25,1.38-0.53,2.28-0.53c1.12,0,2.4,0.43,3.64,1.88c0.12,0.25,0.52,1.26,0.52,1.26l4.16,17.58v22.44h3.35V54.1
				c0-2.69,2.35-4.85,5.04-4.85s5.04,2.16,5.04,4.85v18.18h2.79c0,0,0-10.68,0-10.72c0-2.71,1.12-6.56,5.03-6.56
				c4.02,0,5.05,3.85,5.05,6.56c0,0.04,0,13.52,0,13.52h3.21c0,0-0.01-7.61-0.01-7.66c0-2.7,1.74-4.66,4.44-4.66
				c2.62,0,4.28,2.52,4.28,5.22c0,0.05,0.08,17.18,0.08,17.18l-6.41,21.09V128.32z"/>
			<path fill="#FFFFFF" d="M86.94,85.16l-6.41,21.09v22.07H37.57l-0.28-15.89L25.41,91.44l-4.38-16.72l0.13-13.35
				c0-2.15,1.51-3.92,3.44-3.92c0.51,0,1.05,0.12,1.6,0.4c2.44,1.22,2.52,10.97,2.52,10.97l7.01,12.9l3.39-3.09V51.1l-3.53-18.44
				c-0.08,0-0.13-0.24-0.17-0.48c-0.03-0.24-0.04-0.48-0.04-0.48c-0.18-1.77,1.17-3.73,2.66-4.29c0.58-0.25,1.38-0.53,2.28-0.53
				c1.12,0,2.4,0.43,3.64,1.88c0.12,0.25,0.52,1.26,0.52,1.26l4.16,17.58v22.44h3.35V54.1c0-2.69,2.35-4.85,5.04-4.85
				s5.04,2.16,5.04,4.85v18.18h2.79c0,0,0-10.68,0-10.72c0-2.71,1.12-6.56,5.03-6.56c4.02,0,5.05,3.85,5.05,6.56
				c0,0.04,0,13.52,0,13.52h3.21c0,0-0.01-7.61-0.01-7.66c0-2.7,1.74-4.66,4.44-4.66c2.62,0,4.28,2.52,4.28,5.22
				C86.86,68.03,86.94,85.16,86.94,85.16z"/>
		</g>
	</g>
</g>
</svg>
