<?xml version="1.0" encoding="utf-8"?>
<!-- Generator: Adobe Illustrator 17.1.0, SVG Export Plug-In . SVG Version: 6.00 Build 0)  -->
<!DOCTYPE svg PUBLIC "-//W3C//DTD SVG 1.1//EN" "http://www.w3.org/Graphics/SVG/1.1/DTD/svg11.dtd">
<svg version="1.1" id="Layer_1" xmlns="http://www.w3.org/2000/svg" xmlns:xlink="http://www.w3.org/1999/xlink" x="0px" y="0px"
	 viewBox="0 0 122 262" width="122" height="262"  enable-background="new 0 0 122 262" xml:space="preserve">
<path fill="#F4F4F4" d="M120,57.959l-8.043-8.043L120,41.873V57.959z M111.25,49.209l-8.709-8.709h17.418L111.25,49.209z
	 M120,78.293l-8.21-8.21l8.21-8.21V78.293z M120,98.293l-8.21-8.21l8.21-8.21V98.293z M120,118.293l-8.21-8.21l8.21-8.21V118.293z
	 M120,218.293l-8.21-8.21l8.21-8.21V218.293z M120,238.293l-8.21-8.21l8.21-8.21V238.293z M120,258.293l-8.281-8.281l8.281-8.28
	V258.293z M119.626,259.333h-17.228l8.614-8.614L119.626,259.333z M19.793,19.5H2V1.707L19.793,19.5z M80.5,1.04v17.419l-8.71-8.71
	L80.5,1.04z M71.083,9.043L63.041,1h16.085L71.083,9.043z M40.5,258.793l-8.71-8.71l8.71-8.71V258.793z M20.5,258.793l-8.71-8.71
	l8.71-8.71V258.793z M2,59.318l0.104,0.104l8.472-8.472l8.55,8.55H2V59.318z M99.876,160.583l-9.136,9.136l-9.123-9.219h18.175
	L99.876,160.583z M79.876,140.583l-9.031,9.031l-9.019-9.114h17.967L79.876,140.583z M59.876,120.583l-8.926,8.926l-8.915-9.009
	h17.758L59.876,120.583z M60.5,121.374v17.786l-8.846-8.94L60.5,121.374z M59.43,139.5H42.374l8.573-8.573L59.43,139.5z
	 M59.959,140.5l-8.876,8.876l-8.876-8.876H59.959z M60.5,141.374v17.419l-8.71-8.71L60.5,141.374z M59.793,159.5H42.374l8.71-8.71
	L59.793,159.5z M59.959,160.5l-8.876,8.876l-8.876-8.876H59.959z M60.5,161.374v17.419l-8.71-8.71L60.5,161.374z M59.793,179.5
	H42.374l8.71-8.71L59.793,179.5z M59.959,180.5l-8.876,8.876l-8.876-8.876H59.959z M60.5,181.374v17.419l-8.71-8.71L60.5,181.374z
	 M59.793,199.5H42.374l8.71-8.71L59.793,199.5z M62.207,200.5h17.752l-8.876,8.876L62.207,200.5z M70.376,210.083L61.5,218.96
	v-17.753L70.376,210.083z M62.374,199.5l8.71-8.71l8.71,8.71H62.374z M61.5,198.959v-17.752l8.876,8.876L61.5,198.959z
	 M62.207,180.5h17.752l-8.876,8.876L62.207,180.5z M62.374,179.5l8.71-8.71l8.71,8.71H62.374z M61.5,178.959v-17.752l8.876,8.876
	L61.5,178.959z M62.207,160.5h17.752l-8.876,8.876L62.207,160.5z M62.374,159.5l8.468-8.468l8.38,8.468H62.374z M61.5,158.959
	v-17.368l8.638,8.729L61.5,158.959z M62.374,139.5l8.21-8.21l8.21,8.21H62.374z M61.5,138.959v-16.752l8.376,8.376L61.5,138.959z
	 M61.5,120.793V120.5h18.459l-9.376,9.376L61.5,120.793z M62.374,119.5l8.376-8.376l8.376,8.376H62.374z M61.5,118.959v-17.086
	l8.543,8.543L61.5,118.959z M61.54,100.5h18.419l-9.209,9.21L61.54,100.5z M62.373,99.5l8.377-8.377l8.377,8.377H62.373z
	 M61.5,98.959V81.874l8.543,8.543L61.5,98.959z M61.541,80.5h18.419l-9.209,9.209L61.541,80.5z M62.374,79.5l8.71-8.71l8.71,8.71
	H62.374z M61.5,78.959V61.207l8.876,8.876L61.5,78.959z M62.207,60.5h17.753l-8.876,8.876L62.207,60.5z M59.793,59.5H42.041
	l8.876-8.876L59.793,59.5z M51.624,49.917l8.876-8.876v17.753L51.624,49.917z M41.5,58.626V41.207l8.71,8.71L41.5,58.626z
	 M59.96,60.5l-9.21,9.21l-9.21-9.21H59.96z M60.5,61.374v18.086l-9.043-9.043L60.5,61.374z M59.126,79.5H42.374l8.376-8.376
	L59.126,79.5z M59.959,80.5l-9.21,9.21l-9.21-9.21H59.959z M60.5,81.374V99.46l-9.043-9.043L60.5,81.374z M59.126,99.5H42.374
	l8.376-8.376L59.126,99.5z M41.5,100.5h18.459l-9.376,9.376l-9.083-9.083V100.5z M60.5,101.373V119.5h-0.293l-8.917-8.917
	L60.5,101.373z M58.793,119.5h-16.42l8.21-8.21L58.793,119.5z M50.243,130.216L41.5,138.96v-17.578L50.243,130.216z M50.376,150.083
	L41.5,158.96v-17.753L50.376,150.083z M50.376,170.083L41.5,178.96v-17.753L50.376,170.083z M50.376,190.083L41.5,198.96v-17.753
	L50.376,190.083z M42.207,200.5h17.752l-8.876,8.876L42.207,200.5z M50.376,210.083L41.5,218.96v-17.753L50.376,210.083z
	 M60.5,201.374v17.419l-8.71-8.71L60.5,201.374z M71.083,210.79l8.71,8.71H62.374L71.083,210.79z M71.79,210.083l8.71-8.71v17.419
	L71.79,210.083z M71.79,190.083l8.71-8.71v17.42L71.79,190.083z M71.79,170.083l8.71-8.71v17.42L71.79,170.083z M71.549,150.325
	l8.951-8.951v17.997L71.549,150.325z M80.207,139.5l-8.917-8.917l9.21-9.21V139.5H80.207z M71.457,110.417l9.043-9.043v18.086
	L71.457,110.417z M71.457,90.416l9.043-9.043v18.086L71.457,90.416z M71.79,70.083l8.71-8.71v17.42L71.79,70.083z M62.374,59.5
	l8.71-8.71l8.71,8.71H62.374z M61.5,58.96V41.207l8.876,8.876L61.5,58.96z M62.207,40.5H79.96l-8.876,8.876L62.207,40.5z
	 M50.917,49.21l-8.71-8.71h17.42L50.917,49.21z M40.5,41.04v18.42l-9.21-9.21L40.5,41.04z M30.583,49.543L21.54,40.5h18.086
	L30.583,49.543z M39.126,59.5H22.04l8.543-8.543L39.126,59.5z M50.043,70.417L41.5,78.96V61.874L50.043,70.417z M50.043,90.417
	L41.5,98.959V81.874L50.043,90.417z M49.876,110.583l-8.376,8.376v-16.752L49.876,110.583z M40.5,121.373v17.42l-8.71-8.71
	L40.5,121.373z M31.083,129.376l-8.876-8.876h17.752L31.083,129.376z M39.793,139.5H22.373l8.71-8.71L39.793,139.5z M39.96,140.5
	l-8.876,8.876l-8.876-8.876H39.96z M40.5,141.374v17.419l-8.71-8.71L40.5,141.374z M39.793,159.5H22.374l8.71-8.71L39.793,159.5z
	 M39.96,160.5l-8.876,8.876l-8.876-8.876H39.96z M40.5,161.374v17.419l-8.71-8.71L40.5,161.374z M39.793,179.5H22.374l8.71-8.71
	L39.793,179.5z M39.96,180.5l-8.876,8.876l-8.876-8.876H39.96z M40.5,181.374v17.419l-8.71-8.71L40.5,181.374z M39.793,199.5H22.374
	l8.71-8.71L39.793,199.5z M39.96,200.5l-8.876,8.876l-8.876-8.876H39.96z M40.5,201.374v17.419l-8.71-8.71L40.5,201.374z
	 M39.793,219.5H22.374l8.71-8.71L39.793,219.5z M39.96,220.5l-8.876,8.876l-8.876-8.876H39.96z M40.5,221.374v17.419l-8.71-8.71
	L40.5,221.374z M51.083,210.79l8.71,8.71H42.374L51.083,210.79z M62.207,220.5h17.752l-8.876,8.876L62.207,220.5z M70.376,230.083
	L61.5,238.96v-17.753L70.376,230.083z M80.5,221.374v17.419l-8.71-8.71L80.5,221.374z M81.5,218.959v-17.752l8.876,8.876
	L81.5,218.959z M91.083,210.79l8.71,8.71H82.374L91.083,210.79z M82.207,200.5h17.752l-8.876,8.876L82.207,200.5z M82.373,199.5
	l8.71-8.71l8.71,8.71H82.373z M81.5,198.959v-17.752l8.876,8.876L81.5,198.959z M82.207,180.5h17.752l-8.876,8.876L82.207,180.5z
	 M82.373,179.5l8.363-8.363l8.276,8.363H82.373z M81.5,178.959v-17.157l8.533,8.623L81.5,178.959z M82.373,159.5l8.21-8.21
	l8.21,8.21H82.373z M81.5,158.959v-16.752l8.376,8.376L81.5,158.959z M81.5,140.793V140.5h18.459l-9.376,9.376L81.5,140.793z
	 M82.373,139.5l8.376-8.377l8.377,8.377H82.373z M81.5,138.959v-17.086l8.543,8.543L81.5,138.959z M81.54,120.5h18.419l-9.209,9.209
	L81.54,120.5z M82.373,119.5l8.377-8.377l8.377,8.377H82.373z M81.5,118.959v-17.086l8.543,8.543L81.5,118.959z M81.541,100.5
	h18.418l-9.209,9.209L81.541,100.5z M82.373,99.5l8.71-8.71l8.71,8.71H82.373z M81.5,98.959V81.207l8.876,8.876L81.5,98.959z
	 M82.207,80.5h17.752l-8.876,8.876L82.207,80.5z M82.373,79.5l8.71-8.71l8.71,8.71H82.373z M81.5,78.959V61.207l8.876,8.876
	L81.5,78.959z M71.79,50.083l8.71-8.71v17.419L71.79,50.083z M79.793,39.5H62.041l8.876-8.876L79.793,39.5z M71.624,29.917
	l8.876-8.876v17.752L71.624,29.917z M61.5,38.626V21.207l8.71,8.71L61.5,38.626z M60.5,38.793l-8.876-8.876L60.5,21.04V38.793z
	 M59.793,39.5H42.04l8.876-8.876L59.793,39.5z M41.5,38.626V21.207l8.709,8.709L41.5,38.626z M40.5,38.793l-8.884-8.884l8.884-8.884
	V38.793z M39.793,39.5H22.026l8.883-8.883L39.793,39.5z M21.5,38.612V21.207l8.702,8.702L21.5,38.612z M29.876,50.25L21.5,58.626
	V41.874L29.876,50.25z M39.626,60.5l-9.043,9.043L21.54,60.5H39.626z M40.5,61.041V79.46l-9.21-9.21L40.5,61.041z M39.126,79.5
	H22.041l8.543-8.543L39.126,79.5z M40.5,99.5h-0.293l-8.917-8.917l9.21-9.21V99.5z M38.793,99.5H22.374l8.21-8.21L38.793,99.5z
	 M39.793,100.5l0.083,0.083l-8.821,8.821l-8.812-8.905H39.793z M40.5,101.374v17.576l-8.742-8.834L40.5,101.374z M39.638,119.5
	H22.374l8.678-8.678L39.638,119.5z M30.376,130.083l-8.876,8.876v-17.752L30.376,130.083z M30.376,150.083L21.5,158.96v-17.753
	L30.376,150.083z M30.376,170.083L21.5,178.96v-17.753L30.376,170.083z M30.376,190.083L21.5,198.96v-17.753L30.376,190.083z
	 M30.376,210.083L21.5,218.96v-17.753L30.376,210.083z M30.376,230.083L21.5,238.96v-17.753L30.376,230.083z M31.083,230.79
	l8.71,8.71H22.374L31.083,230.79z M41.5,221.207l8.876,8.876L41.5,238.96V221.207z M42.207,220.5H59.96l-8.876,8.876L42.207,220.5z
	 M60.5,221.374v17.419l-8.71-8.71L60.5,221.374z M71.083,230.79l8.71,8.71H62.374L71.083,230.79z M81.5,221.207l8.876,8.876
	l-8.876,8.876V221.207z M82.207,220.5h17.752l-8.876,8.876L82.207,220.5z M100.5,221.373v17.42l-8.71-8.71L100.5,221.373z
	 M91.79,210.083l8.71-8.71v17.42L91.79,210.083z M91.79,190.083l8.71-8.71v17.42L91.79,190.083z M100.42,179.5l-8.976-9.07
	l9.056-9.056V179.5H100.42z M100.207,159.5l-8.917-8.917l9.21-9.21V159.5H100.207z M91.457,130.416l9.043-9.043v18.086
	L91.457,130.416z M91.457,110.416l9.043-9.043v18.086L91.457,110.416z M91.79,90.083l8.71-8.71v17.42L91.79,90.083z M91.79,70.083
	l8.71-8.71v17.42L91.79,70.083z M91.083,69.376L82.207,60.5h17.752L91.083,69.376z M82.374,59.5l8.71-8.71l8.71,8.71H82.374z
	 M81.5,58.959V41.207l8.876,8.876L81.5,58.959z M82.207,40.5h17.752l-8.876,8.876L82.207,40.5z M82.374,39.5l8.876-8.876
	l8.876,8.876H82.374z M81.5,38.96V20.874l9.043,9.043L81.5,38.96z M82.541,20.5H99.96l-8.71,8.71L82.541,20.5z M70.917,29.21
	l-8.71-8.71h17.419L70.917,29.21z M50.917,29.209L42.207,20.5h17.419L50.917,29.209z M30.909,29.202L22.207,20.5h17.405
	L30.909,29.202z M20.5,21.39v18.07l-9.035-9.035L20.5,21.39z M10.758,29.718L2,20.96V20.5h17.976L10.758,29.718z M19.126,39.5H2.39
	l8.368-8.368L19.126,39.5z M2,40.5h17.612l-9.036,9.036L2,40.96V40.5z M20.5,41.026V59.46l-9.217-9.217L20.5,41.026z M29.876,70.25
	L21.5,78.626V61.874L29.876,70.25z M21.5,80.5h18.46l-9.376,9.376L21.5,80.793V80.5z M29.876,90.583L21.5,98.96V82.207
	L29.876,90.583z M30.348,110.112l-8.848,8.848v-17.789L30.348,110.112z M20.5,138.793l-8.71-8.71l8.71-8.71V138.793z M19.793,139.5
	H2.374l8.71-8.71L19.793,139.5z M19.959,140.5l-8.876,8.876l-8.871-8.871L19.959,140.5z M20.5,141.373v17.419l-8.71-8.71
	L20.5,141.373z M19.793,159.5H2.374l8.71-8.71L19.793,159.5z M19.96,160.5l-8.876,8.876l-8.872-8.872L19.96,160.5z M20.5,161.374
	v17.419l-8.71-8.71L20.5,161.374z M19.793,179.5H2.374l8.709-8.71L19.793,179.5z M19.96,180.5l-8.876,8.876l-8.872-8.872
	L19.96,180.5z M20.5,181.374v17.419l-8.71-8.71L20.5,181.374z M19.793,199.5H2.374l8.709-8.71L19.793,199.5z M19.96,200.5
	l-8.876,8.876l-8.872-8.872L19.96,200.5z M20.5,201.374v17.419l-8.71-8.71L20.5,201.374z M19.793,219.5H2.374l8.709-8.71
	L19.793,219.5z M19.96,220.5l-8.876,8.876l-8.871-8.872L19.96,220.5z M20.5,221.374v17.419l-8.71-8.71L20.5,221.374z M19.793,239.5
	H2.374l8.709-8.709L19.793,239.5z M19.96,240.5l-8.876,8.876l-8.872-8.872L19.96,240.5z M21.5,241.207l8.876,8.876L21.5,258.96
	V241.207z M22.207,240.5H39.96l-8.877,8.877L22.207,240.5z M51.083,230.79l8.71,8.71H42.374L51.083,230.79z M62.207,240.5h17.752
	l-8.876,8.876L62.207,240.5z M70.376,250.083l-8.876,8.876v-17.752L70.376,250.083z M80.5,241.373v17.42l-8.71-8.71L80.5,241.373z
	 M91.083,230.79l8.71,8.71h-17.42L91.083,230.79z M101.5,221.207l8.876,8.876l-8.876,8.876V221.207z M102.207,220.5h17.752
	l-8.876,8.876L102.207,220.5z M101.5,201.207l8.876,8.876l-8.876,8.876V201.207z M102.207,200.5h17.587l0.082,0.083l-8.793,8.793
	L102.207,200.5z M102.373,199.5l8.259-8.259l8.173,8.259H102.373z M101.5,198.959v-16.946l8.429,8.517L101.5,198.959z
	 M101.5,180.592V180.5h18.293l0.083,0.083l-9.24,9.241L101.5,180.592z M102.373,179.5l8.21-8.21l8.21,8.21H102.373z M101.5,178.959
	v-16.752l8.376,8.376L101.5,178.959z M101.5,160.793V160.5h18.459l-9.376,9.376L101.5,160.793z M102.373,159.5l8.377-8.377
	l8.377,8.377H102.373z M101.5,158.959v-17.086l8.543,8.543L101.5,158.959z M101.54,140.5h18.419l-9.209,9.209L101.54,140.5z
	 M102.373,139.5l8.377-8.377l8.377,8.377H102.373z M101.5,138.959v-17.086l8.543,8.543L101.5,138.959z M101.541,120.5h18.418
	l-9.209,9.209L101.541,120.5z M101.5,101.207l8.876,8.876l-8.876,8.876V101.207z M102.207,100.5h17.752l-8.876,8.876L102.207,100.5z
	 M101.5,81.207l8.876,8.876l-8.876,8.876V81.207z M102.207,80.5h17.752l-8.876,8.876L102.207,80.5z M102.373,79.5l8.71-8.71
	l8.71,8.71H102.373z M101.5,78.959V61.207l8.876,8.876L101.5,78.959z M91.79,50.083l8.71-8.71v17.419L91.79,50.083z M91.957,29.917
	l8.543-8.543v17.086L91.957,29.917z M100.5,1.041v17.419L91.791,9.75L100.5,1.041z M91.084,9.043L83.041,1h16.086L91.084,9.043z
	 M100.127,19.5H82.041l9.043-9.043L100.127,19.5z M80.126,19.5H62.04l9.043-9.043L80.126,19.5z M59.793,19.5H42.026l8.884-8.884
	L59.793,19.5z M51.616,9.909L60.5,1.026v17.767L51.616,9.909z M41.5,18.612V1.207l8.702,8.702L41.5,18.612z M40.5,18.793
	l-8.702-8.702L40.5,1.39V18.793z M39.793,19.5H22.39l8.701-8.702L39.793,19.5z M21.5,18.976V1.207l8.884,8.884L21.5,18.976z
	 M10.051,30.425L2,38.476V22.374L10.051,30.425z M9.869,50.243L2,58.112V42.374L9.869,50.243z M2,60.5h17.626l-9.209,9.209L2,61.293
	V60.5z M20.5,61.04V79.5h-0.293l-9.083-9.083L20.5,61.04z M18.793,79.5H2.04l8.376-8.376L18.793,79.5z M19.626,80.5l-8.632,8.632
	L2.452,80.5H19.626z M20.417,81.124l0.083,0.083v17.531l-8.803-8.895L20.417,81.124z M19.847,99.5H2.041l8.95-8.95L19.847,99.5z
	 M19.96,100.5l-8.876,8.876l-8.871-8.871L19.96,100.5z M20.5,101.374v17.419l-8.71-8.71L20.5,101.374z M19.793,119.5H2.374
	l8.71-8.71L19.793,119.5z M19.959,120.5l-8.876,8.876l-8.871-8.871L19.959,120.5z M2,121.707l8.376,8.376L2,138.459V121.707z
	 M2,141.707l8.376,8.376L2,158.459V141.707z M2,161.707l8.376,8.376L2,178.46V161.707z M2,181.707l8.376,8.376L2,198.46V181.707z
	 M2,201.707l8.376,8.376L2,218.46V201.707z M2,221.707l8.376,8.376L2,238.46V221.707z M2,241.707l8.376,8.376L2,258.46V241.707z
	 M11.083,250.79l8.543,8.543H2.541L11.083,250.79z M31.083,250.791l8.543,8.543H22.541L31.083,250.791z M41.5,241.207l8.876,8.876
	L41.5,258.96V241.207z M42.207,240.5H59.96l-8.876,8.876L42.207,240.5z M60.5,241.374v17.419l-8.71-8.71L60.5,241.374z
	 M71.083,250.79l8.543,8.543H62.54L71.083,250.79z M81.5,241.207l8.876,8.876L81.5,258.96V241.207z M82.207,240.5h17.752
	l-8.876,8.876L82.207,240.5z M100.5,241.374v17.419l-8.71-8.71L100.5,241.374z M101.5,258.817v-17.61l8.805,8.805L101.5,258.817z
	 M111.083,230.79l8.71,8.71h-17.419L111.083,230.79z M102.373,219.5l8.71-8.71l8.71,8.71H102.373z M111.339,190.534l8.661-8.661
	v17.414L111.339,190.534z M111.29,170.583l8.71-8.71v17.42L111.29,170.583z M111.457,150.416l8.543-8.543v17.086L111.457,150.416z
	 M111.457,130.416l8.543-8.543v17.086L111.457,130.416z M102.373,119.5l8.71-8.71l8.71,8.71H102.373z M102.373,99.5l8.71-8.71
	l8.71,8.71H102.373z M111.083,69.376l-8.876-8.876h17.752L111.083,69.376z M101.5,40.874l9.043,9.043l-9.043,9.043V40.874z
	 M101.5,20.873l9.043,9.043l-9.043,9.043V20.873z M102.541,20.5h17.419l-8.709,8.709L102.541,20.5z M102.374,19.5L120,1.874V19.5
	H102.374z M119.46,1L101.5,18.96V1H119.46z M81.899,1l-0.136,0.136l8.614,8.614L81.5,18.626V1H81.899z M61.626,1l8.75,8.75
	L61.5,18.626V1H61.626z M59.112,1l-8.202,8.202L42.707,1H59.112z M31.091,9.384L22.707,1h16.769L31.091,9.384z M20.5,18.793L2.707,1
	H20.5V18.793z M2,62.707l7.709,7.709L2,78.126V62.707z M2,81.465l8.287,8.374L2,98.126V81.465z M2,101.707l8.376,8.376L2,118.459
	V101.707z M51.083,250.79l8.543,8.543H42.541L51.083,250.79z M82.541,259.333l8.543-8.543l8.543,8.543H82.541z M119.813,240.505
	l-8.801,8.801l-8.805-8.805L119.813,240.505z M119.986,239.5l0.014-0.014v0.014H119.986z M119.986,219.5l0.014-0.014v0.014H119.986z
	 M119.987,119.5l0.013-0.013v0.013H119.987z M102.373,59.5l8.877-8.877l8.75,8.75V59.5H102.373z M102.374,39.5l8.877-8.877
	l8.75,8.75V39.5H102.374z M120,37.959l-8.043-8.043L120,21.874V37.959z M121,0H40.672H1L0.98,99.146L1,260.333h99.626l0.02,0.02
	l0.02-0.02H121V60.5V0z"/>
<g opacity="0.5">
	<circle fill="#EAEAEA" cx="60.956" cy="61.195" r="37.688"/>
</g>
<g>
	<polygon fill="#FF8C40" points="64.419,57.984 54.784,57.984 54.784,61.195 57.995,61.195 57.995,70.83 54.784,70.83
		54.784,74.042 67.63,74.042 67.63,70.83 64.419,70.83 	"/>
	<circle fill="#FF8C40" cx="61.207" cy="51.56" r="3.212"/>
	<path fill="#FF8C40" d="M61.207,38.714c-12.415,0-22.482,10.066-22.482,22.482s10.066,22.482,22.482,22.482
		s22.482-10.066,22.482-22.482S73.622,38.714,61.207,38.714z M61.207,82.071c-11.511,0-20.876-9.365-20.876-20.876
		s9.365-20.876,20.876-20.876s20.876,9.365,20.876,20.876S72.718,82.071,61.207,82.071z"/>
</g>
<path fill="none" stroke="#FF8C40" stroke-miterlimit="10" stroke-dasharray="3" d="M83.083,59.363l15.25,132.5
	c0,0-2.083-39-36.25-39.167c-34.5-0.667-37.667,39.167-37.667,39.167L40.083,60.196"/>
<g>
	<g>
		<circle fill="#EFEFEF" cx="61.328" cy="188.592" r="37.688"/>
	</g>
	<g>
		<polygon fill="#FF8C40" points="66.601,183.077 50.4,183.077 50.4,188.477 55.8,188.477 55.8,204.678 50.4,204.678 50.4,210.079
			72.002,210.079 72.002,204.678 66.601,204.678 		"/>
		<circle fill="#FF8C40" cx="61.201" cy="172.276" r="5.4"/>
		<path fill="#FF8C40" d="M61.201,150.675c-20.876,0-37.803,16.926-37.803,37.803s16.926,37.803,37.803,37.803
			s37.803-16.926,37.803-37.803S82.077,150.675,61.201,150.675z M61.201,223.58c-19.356,0-35.102-15.747-35.102-35.102
			s15.747-35.102,35.102-35.102s35.102,15.747,35.102,35.102S80.556,223.58,61.201,223.58z"/>
	</g>
</g>
</svg>
