<?xml version="1.0" encoding="utf-8"?>
<!-- Generator: Adobe Illustrator 17.1.0, SVG Export Plug-In . SVG Version: 6.00 Build 0)  -->
<!DOCTYPE svg PUBLIC "-//W3C//DTD SVG 1.1//EN" "http://www.w3.org/Graphics/SVG/1.1/DTD/svg11.dtd">
<svg version="1.1" id="Layer_1" xmlns="http://www.w3.org/2000/svg" xmlns:xlink="http://www.w3.org/1999/xlink" x="0px" y="0px"
	 viewBox="0 0 207.75 136.25" width="207.75" height="136.25"  enable-background="new 0 0 207.75 136.25" xml:space="preserve">
<g>
	<path fill="#414141" d="M123.387,3.539c-1.859,1.833-3.367,5.239-3.536,8.112h-1.235c0.208-3.12,1.703-5.98,3.641-8.021h-4.837
		v-1.04h5.968V3.539z"/>
	<path fill="#414141" d="M127.208,4.929h1.04v0.988h0.026c0.507-0.767,1.222-1.144,2.171-1.144c0.832,0,1.573,0.312,1.846,1.144
		c0.455-0.728,1.235-1.144,2.106-1.144c1.339,0,2.236,0.559,2.236,1.95v4.927h-1.105V7.244c0-0.832-0.221-1.495-1.3-1.495
		s-1.755,0.676-1.755,1.716v4.187h-1.105V7.244c0-0.871-0.272-1.495-1.261-1.495c-1.3,0-1.794,1.196-1.794,1.716v4.187h-1.105V4.929
		z"/>
	<path fill="#414141" d="M138.062,4.929h1.04v0.988h0.026c0.507-0.767,1.222-1.144,2.171-1.144c0.832,0,1.573,0.312,1.846,1.144
		c0.455-0.728,1.235-1.144,2.106-1.144c1.339,0,2.236,0.559,2.236,1.95v4.927h-1.105V7.244c0-0.832-0.221-1.495-1.3-1.495
		s-1.755,0.676-1.755,1.716v4.187h-1.105V7.244c0-0.871-0.272-1.495-1.261-1.495c-1.3,0-1.794,1.196-1.794,1.716v4.187h-1.105V4.929
		z"/>
</g>
<g opacity="0.6">
	<g>
		<circle fill="#EFEFEF" cx="47.19" cy="73.111" r="46.351"/>
	</g>
</g>
<g>
	<g>
		<path fill="#FF8C40" d="M46.948,102.381c-16.245,0-29.462-13.217-29.462-29.462c0-16.245,13.217-29.461,29.462-29.461
			s29.461,13.216,29.461,29.461C76.409,89.164,63.193,102.381,46.948,102.381z"/>
	</g>
	<g>
		<g>
			<path fill="#FF8C40" d="M46.948,44.936c15.43,0,27.984,12.553,27.984,27.984s-12.553,27.984-27.984,27.984
				S18.964,88.349,18.964,72.919S31.517,44.936,46.948,44.936L46.948,44.936z M46.948,41.98c-17.087,0-30.939,13.852-30.939,30.939
				s13.852,30.939,30.939,30.939s30.939-13.852,30.939-30.939S64.035,41.98,46.948,41.98L46.948,41.98z"/>
		</g>
	</g>
</g>
<g opacity="0.6">
	<g>
		<circle fill="#EFEFEF" cx="124.672" cy="73.111" r="46.351"/>
	</g>
</g>
<g>
	<g>
		<path fill="#FF8C40" d="M124.914,102.381c-16.245,0-29.462-13.217-29.462-29.462c0-16.245,13.217-29.461,29.462-29.461
			s29.461,13.216,29.461,29.461C154.375,89.164,141.159,102.381,124.914,102.381z"/>
	</g>
	<g>
		<g>
			<path fill="#FF8C40" d="M124.914,44.936c15.43,0,27.984,12.553,27.984,27.984s-12.553,27.984-27.984,27.984
				S96.93,88.349,96.93,72.919S109.484,44.936,124.914,44.936L124.914,44.936z M124.914,41.98
				c-17.087,0-30.939,13.852-30.939,30.939s13.852,30.939,30.939,30.939s30.939-13.852,30.939-30.939S142.001,41.98,124.914,41.98
				L124.914,41.98z"/>
		</g>
	</g>
</g>
<g>
	<path fill="#414141" d="M72.724,124.693c-0.104-1.872,1.014-3.264,2.964-3.264c1.599,0,2.886,0.937,2.886,2.652
		c0,1.625-1.092,2.432-2.236,3.159c-1.144,0.689-2.379,1.3-2.587,2.432h4.732v0.975h-6.02c0.169-2.171,1.287-2.99,2.588-3.771
		c1.56-0.975,2.353-1.521,2.353-2.808c0-1.001-0.806-1.664-1.781-1.664c-1.287,0-1.833,1.183-1.794,2.288H72.724z"/>
	<path fill="#414141" d="M82.786,123.926h1.04v0.988h0.026c0.507-0.767,1.222-1.144,2.171-1.144c0.832,0,1.573,0.312,1.846,1.144
		c0.455-0.728,1.235-1.144,2.106-1.144c1.339,0,2.236,0.559,2.236,1.95v4.927h-1.105v-4.407c0-0.832-0.221-1.495-1.3-1.495
		s-1.755,0.676-1.755,1.716v4.187h-1.105v-4.407c0-0.871-0.272-1.495-1.261-1.495c-1.3,0-1.794,1.196-1.794,1.716v4.187h-1.105
		V123.926z"/>
	<path fill="#414141" d="M93.64,123.926h1.04v0.988h0.026c0.507-0.767,1.222-1.144,2.171-1.144c0.832,0,1.573,0.312,1.846,1.144
		c0.455-0.728,1.235-1.144,2.106-1.144c1.339,0,2.236,0.559,2.236,1.95v4.927h-1.105v-4.407c0-0.832-0.221-1.495-1.3-1.495
		s-1.755,0.676-1.755,1.716v4.187H97.8v-4.407c0-0.871-0.272-1.495-1.261-1.495c-1.3,0-1.794,1.196-1.794,1.716v4.187H93.64V123.926
		z"/>
</g>
<g>
	<path fill="#414141" d="M182.887,67.558c-1.859,1.833-3.367,5.239-3.536,8.112h-1.235c0.208-3.12,1.703-5.98,3.641-8.021h-4.837
		v-1.04h5.968V67.558z"/>
	<path fill="#414141" d="M186.708,68.948h1.04v0.988h0.026c0.507-0.767,1.222-1.144,2.171-1.144c0.832,0,1.573,0.312,1.846,1.144
		c0.455-0.728,1.235-1.144,2.106-1.144c1.339,0,2.236,0.559,2.236,1.95v4.927h-1.105v-4.407c0-0.832-0.221-1.495-1.3-1.495
		s-1.755,0.676-1.755,1.716v4.187h-1.105v-4.407c0-0.871-0.272-1.495-1.261-1.495c-1.3,0-1.794,1.196-1.794,1.716v4.187h-1.105
		V68.948z"/>
	<path fill="#414141" d="M197.562,68.948h1.04v0.988h0.026c0.507-0.767,1.222-1.144,2.171-1.144c0.832,0,1.573,0.312,1.846,1.144
		c0.455-0.728,1.235-1.144,2.106-1.144c1.339,0,2.236,0.559,2.236,1.95v4.927h-1.105v-4.407c0-0.832-0.221-1.495-1.3-1.495
		s-1.755,0.676-1.755,1.716v4.187h-1.105v-4.407c0-0.871-0.272-1.495-1.261-1.495c-1.3,0-1.794,1.196-1.794,1.716v4.187h-1.105
		V68.948z"/>
</g>
<g>
	<line fill="none" x1="85.25" y1="78.25" x2="85.25" y2="118.25"/>
	<path fill="#FF8C40" d="M86.25,116.25h-1v-2h1V116.25z M86.25,112.25h-1v-2h1V112.25z M86.25,108.25h-1v-2h1V108.25z M86.25,104.25
		h-1v-2h1V104.25z M86.25,100.25h-1v-2h1V100.25z M86.25,96.25h-1v-2h1V96.25z M86.25,92.25h-1v-2h1V92.25z M86.25,88.25h-1v-2h1
		V88.25z M86.25,84.25h-1v-2h1V84.25z M86.25,80.25h-1v-2h1V80.25z"/>
</g>
</svg>
