<?xml version="1.0" encoding="utf-8"?>
<!-- Generator: Adobe Illustrator 19.2.1, SVG Export Plug-In . SVG Version: 6.00 Build 0)  -->
<svg version="1.1" id="Layer_1" xmlns="http://www.w3.org/2000/svg" xmlns:xlink="http://www.w3.org/1999/xlink" x="0px" y="0px"
	 viewBox="0 0 356 174" style="enable-background:new 0 0 356 174;" xml:space="preserve">
<style type="text/css">
	.st0{fill:#FFB485;}
	.st1{fill:#FF8C40;}
	.st2{fill:#FFFFFF;}
	.st3{fill:#EAEAEA;}
	.st4{fill:#414141;}
</style>
<rect x="298.4" y="41.8" class="st0" width="54.5" height="93.2"/>
<path class="st1" d="M350.2,103.9c0-15.3-11.5-27.6-25.9-27.6s-25.8,12.4-25.8,27.6c0,1.3,0.4,2.6,0.4,3.8V131h22
	c1.1,0,2.3,0.2,3.5,0.2s2.3-0.2,3.5-0.2h1l0,0C341,128.5,350.2,117.3,350.2,103.9z"/>
<rect x="18.9" y="12" class="st1" width="192" height="146"/>
<path class="st0" d="M25.1,24.1c0,49.7,40.1,89.7,89.7,89.7s89.7-39.8,89.7-89.5c0-4.3-0.3-8.2-0.9-12.2H26
	C25.4,16,25.1,19.8,25.1,24.1z"/>
<path class="st2" d="M51.1,23.1c0,35,28.3,63,63.3,63s63.3-27.8,63.3-62.8c0-4-0.4-7.3-1.1-11.3H52.2C51.5,16,51.1,19.1,51.1,23.1z"
	/>
<path class="st2" d="M352.8,41.8c0,0,0.1,5.1,0.1,10c-12.3-0.2-25.5,3.3-25.5,3.3s-21.4,4.7-28.9,14.5l0.1-27.7
	C298.5,41.8,350.9,41.9,352.8,41.8z"/>
<path class="st3" d="M355,34.1c0-5.1-3-9.1-8.1-9.1H307c-5.1,0-11,4-11,9.1v106.1c0,5.1,5.9,8.8,11,8.8h39.9c5.1,0,8.1-3.6,8.1-8.8
	V34.1z M352,129.6c0,0.8-0.6,1.4-1.4,1.4h-50.2c-0.8,0-1.4-0.6-1.4-1.4V43.4c0-0.8,0.6-1.4,1.4-1.4h50.2c0.8,0,1.4,0.6,1.4,1.4
	V129.6z"/>
<path class="st2" d="M320.4,33.9h8.9c0.3,0,0.6,0.3,0.6,0.6v0.2c0,0.3-0.3,0.6-0.6,0.6h-8.9c-0.3,0-0.6-0.3-0.6-0.6v-0.2
	C319.8,34.2,320.1,33.9,320.4,33.9L320.4,33.9z"/>
<path class="st2" d="M316.9,34c0.3,0,0.6,0.3,0.6,0.6s-0.3,0.6-0.6,0.6c-0.3,0-0.6-0.3-0.6-0.6S316.6,34,316.9,34L316.9,34z"/>
<path class="st2" d="M324.8,14.9c0.5,0,0.8,0.4,0.8,0.8c0,0.5-0.4,0.8-0.8,0.8c-0.5,0-0.8-0.4-0.8-0.8
	C324,15.3,324.4,14.9,324.8,14.9L324.8,14.9z"/>
<path class="st2" d="M324.8,134.5c3,0,5.4,2.4,5.4,5.4s-2.4,5.4-5.4,5.4s-5.4-2.4-5.4-5.4S321.8,134.5,324.8,134.5L324.8,134.5z
	 M324.8,134.1c3.2,0,5.8,2.6,5.8,5.8s-2.6,5.8-5.8,5.8c-3.2,0-5.8-2.6-5.8-5.8C319,136.7,321.6,134.1,324.8,134.1L324.8,134.1z"/>
<g>
	<path class="st3" d="M230,13.1c0-8-6.3-13.1-14.3-13.1H15C7,0,0,5.1,0,13.1v146.1c0,8,7,14.8,15,14.8h200.7c8,0,14.3-6.7,14.3-14.8
		V13.1z M207,155.7c0,1.3-1,2.3-2.3,2.3H25.3c-1.3,0-2.3-1-2.3-2.3V18.3c0-1.3,1-2.3,2.3-2.3h179.5c1.3,0,2.3,1,2.3,2.3v137.4H207z"
		/>
	<path class="st2" d="M218.4,82.4v14.2c0,0.5-0.4,0.9-0.9,0.9h-0.3c-0.5,0-0.9-0.4-0.9-0.9V82.4c0-0.5,0.4-0.9,0.9-0.9h0.3
		C218,81.5,218.4,81.9,218.4,82.4L218.4,82.4z"/>
	<path class="st2" d="M218.3,77c0,0.6-0.5,1-1,1s-1-0.5-1-1c0-0.6,0.5-1,1-1S218.3,76.4,218.3,77L218.3,77z"/>
	<path class="st2" d="M17.2,86.2c0,2.7-2.2,4.9-4.9,4.9s-4.9-2.2-4.9-4.9c0-2.7,2.2-4.9,4.9-4.9C15,81.3,17.2,83.5,17.2,86.2
		L17.2,86.2z M17.5,86.2c0,2.9-2.3,5.2-5.2,5.2s-5.2-2.3-5.2-5.2c0-2.9,2.3-5.2,5.2-5.2S17.5,83.3,17.5,86.2L17.5,86.2z"/>
</g>
<g>
	<path class="st4" d="M102.9,40.7h1.3v2.9h3.3v-2.9h1.3V48h-1.3v-3.3h-3.3V48h-1.3V40.7z"/>
	<path class="st4" d="M112.1,40.7h1.4l2.8,7.3h-1.4l-0.7-1.9h-2.9l-0.7,1.9h-1.3L112.1,40.7z M111.6,45.1h2.2l-1.1-3.1h0L111.6,45.1
		z"/>
	<path class="st4" d="M116.8,40.7h3.5c1.6,0,2.4,0.7,2.4,2c0,1.4-1,1.8-1.2,1.8v0c0.4,0.1,1.1,0.4,1.1,1.5c0,0.9,0.1,1.6,0.4,1.9
		h-1.4c-0.2-0.3-0.2-0.7-0.2-1.1c0-1.3-0.3-1.9-1.4-1.9H118v3h-1.3V40.7z M118,44h2.1c0.8,0,1.2-0.4,1.2-1.2c0-0.9-0.6-1.1-1.3-1.1
		H118V44z"/>
	<path class="st4" d="M123.8,40.7h3c2.2,0,3.2,1.6,3.2,3.6s-1,3.6-3.2,3.6h-3V40.7z M125,47h1.3c2,0,2.4-1.1,2.4-2.6
		c0-1.5-0.4-2.6-2.4-2.6H125V47z"/>
</g>
<g>
	<path class="st4" d="M110,99.1c0,2.1-1.3,3.8-3.5,3.8s-3.5-1.7-3.5-3.8c0-2.1,1.3-3.8,3.5-3.8S110,97,110,99.1z M104.3,99.1
		c0,1.4,0.7,2.8,2.2,2.8s2.2-1.4,2.2-2.8c0-1.4-0.7-2.8-2.2-2.8S104.3,97.7,104.3,99.1z"/>
	<path class="st4" d="M110.9,95.4h1.3v3.3l3.2-3.3h1.6l-2.9,2.9l3.1,4.4h-1.6l-2.4-3.5l-1,1v2.4h-1.3V95.4z"/>
	<path class="st4" d="M120.4,95.4h1.4l2.8,7.3h-1.4l-0.7-1.9h-2.9l-0.7,1.9h-1.3L120.4,95.4z M119.9,99.8h2.2l-1.1-3.1h0L119.9,99.8
		z"/>
	<path class="st4" d="M126,99.9l-2.7-4.4h1.5l1.9,3.3l1.9-3.3h1.4l-2.7,4.4v2.8H126V99.9z"/>
</g>
<g>
	<path class="st4" d="M104,131.6h3.5c1.3,0,2.2,0.6,2.2,1.8c0,0.7-0.4,1.3-1,1.5v0c0.9,0.2,1.4,0.9,1.4,1.9c0,1.1-0.8,2-2.7,2H104
		V131.6z M105.3,134.6h2.1c0.6,0,1.1-0.4,1.1-1c0-0.7-0.4-1-1.1-1h-2.1V134.6z M105.3,137.8h2.2c0.8,0,1.2-0.4,1.2-1.2
		c0-0.7-0.4-1.1-1.2-1.1h-2.2V137.8z"/>
	<path class="st4" d="M111,131.6h5.2v1.1h-4v1.9h3.7v1h-3.7v2.1h4v1.1H111V131.6z"/>
	<path class="st4" d="M118.2,136.4c0,1.1,0.8,1.6,1.8,1.6c1.1,0,1.5-0.6,1.5-1.1c0-0.6-0.3-0.8-0.6-0.9c-0.5-0.2-1.2-0.3-2.2-0.6
		c-1.3-0.3-1.6-1.1-1.6-1.8c0-1.5,1.3-2.1,2.7-2.1c1.5,0,2.8,0.8,2.8,2.3h-1.3c-0.1-0.9-0.7-1.3-1.6-1.3c-0.6,0-1.3,0.2-1.3,0.9
		c0,0.5,0.3,0.8,0.9,0.9c0.1,0,1.7,0.4,2.1,0.6c0.9,0.3,1.4,1.1,1.4,1.9c0,1.6-1.5,2.3-2.9,2.3c-1.7,0-3-0.8-3-2.6H118.2z"/>
	<path class="st4" d="M123.1,131.6h5.9v1.1h-2.3v6.2h-1.3v-6.2h-2.3V131.6z"/>
</g>
</svg>
