<?xml version="1.0" encoding="utf-8"?>
<!-- Generator: Adobe Illustrator 19.2.1, SVG Export Plug-In . SVG Version: 6.00 Build 0)  -->
<svg version="1.1" id="Layer_1" xmlns="http://www.w3.org/2000/svg" xmlns:xlink="http://www.w3.org/1999/xlink" x="0px" y="0px"
	 viewBox="0 0 356 174" style="enable-background:new 0 0 356 174;" xml:space="preserve">
<style type="text/css">
	.st0{fill:#FF8C40;}
	.st1{fill:#FFFFFF;}
	.st2{fill:#FFB485;}
	.st3{fill:#EAEAEA;}
	.st4{fill:#414141;}
</style>
<rect x="297.6" y="39.6" class="st0" width="55.7" height="94.1"/>
<rect x="20.2" y="12.6" class="st0" width="192" height="146"/>
<rect x="21.7" y="86.1" class="st1" width="187.2" height="73.5"/>
<path class="st2" d="M23.1,86c3.6,32,43.4,58.1,91.9,58.1S203.3,118,206.9,86H23.1z"/>
<rect x="299" y="82.8" class="st1" width="53.6" height="50.5"/>
<path class="st1" d="M322.8,134.5c3,0,5.4,2.4,5.4,5.4s-2.4,5.4-5.4,5.4s-5.4-2.4-5.4-5.4S319.8,134.5,322.8,134.5L322.8,134.5z
	 M322.8,134.1c3.2,0,5.8,2.6,5.8,5.8s-2.6,5.8-5.8,5.8c-3.2,0-5.8-2.6-5.8-5.8C317,136.7,319.6,134.1,322.8,134.1L322.8,134.1z"/>
<g>
	<path class="st3" d="M230,13.1c0-8-6.3-13.1-14.3-13.1H15C7,0,0,5.1,0,13.1v146.1c0,8,7,14.8,15,14.8h200.7c8,0,14.3-6.7,14.3-14.8
		V13.1z M207,155.7c0,1.3-1,2.3-2.3,2.3H25.3c-1.3,0-2.3-1-2.3-2.3V18.3c0-1.3,1-2.3,2.3-2.3h179.5c1.3,0,2.3,1,2.3,2.3v137.4H207z"
		/>
	<path class="st1" d="M218.6,82.4v14.2c0,0.5-0.4,0.9-0.9,0.9h-0.3c-0.5,0-0.9-0.4-0.9-0.9V82.4c0-0.5,0.4-0.9,0.9-0.9h0.3
		C218.1,81.5,218.6,81.9,218.6,82.4L218.6,82.4z"/>
	<path class="st1" d="M218.5,77c0,0.6-0.5,1-1,1s-1-0.5-1-1c0-0.6,0.5-1,1-1S218.5,76.4,218.5,77L218.5,77z"/>
	<path class="st1" d="M17.3,86.2c0,2.7-2.2,4.9-4.9,4.9s-4.9-2.2-4.9-4.9c0-2.7,2.2-4.9,4.9-4.9C15.1,81.3,17.3,83.5,17.3,86.2
		L17.3,86.2z M17.7,86.2c0,2.9-2.3,5.2-5.2,5.2s-5.2-2.3-5.2-5.2c0-2.9,2.3-5.2,5.2-5.2C15.3,81,17.7,83.3,17.7,86.2L17.7,86.2z"/>
</g>
<path class="st3" d="M355,34.1c0-5.1-3.6-9.1-8.7-9.1H306c-5.1,0-10,4-10,9.1v106.1c0,5.1,4.8,8.8,9.8,8.8h42c5.1,0,7.2-3.6,7.2-8.8
	V34.1z M352,129.6c0,0.8-0.6,1.4-1.4,1.4h-50.2c-0.8,0-1.4-0.6-1.4-1.4V43.4c0-0.8,0.6-1.4,1.4-1.4h50.2c0.8,0,1.4,0.6,1.4,1.4
	V129.6z"/>
<g>
	<g>
		<path class="st1" d="M321.9,33.9h8.9c0.3,0,0.6,0.3,0.6,0.6v0.2c0,0.3-0.3,0.6-0.6,0.6h-8.9c-0.3,0-0.6-0.3-0.6-0.6v-0.2
			C321.3,34.2,321.6,33.9,321.9,33.9L321.9,33.9z"/>
		<path class="st1" d="M318.4,34c0.3,0,0.6,0.3,0.6,0.6s-0.3,0.6-0.6,0.6c-0.3,0-0.6-0.3-0.6-0.6S318.1,34,318.4,34L318.4,34z"/>
		<path class="st1" d="M326.3,29.9c0.5,0,0.8,0.4,0.8,0.8c0,0.5-0.4,0.8-0.8,0.8c-0.5,0-0.8-0.4-0.8-0.8S325.9,29.9,326.3,29.9
			L326.3,29.9z"/>
		<path class="st1" d="M321.9,33.9h8.9c0.3,0,0.6,0.3,0.6,0.6v0.2c0,0.3-0.3,0.6-0.6,0.6h-8.9c-0.3,0-0.6-0.3-0.6-0.6v-0.2
			C321.3,34.2,321.6,33.9,321.9,33.9L321.9,33.9z"/>
		<path class="st1" d="M318.4,34c0.3,0,0.6,0.3,0.6,0.6s-0.3,0.6-0.6,0.6c-0.3,0-0.6-0.3-0.6-0.6S318.1,34,318.4,34L318.4,34z"/>
		<path class="st1" d="M326.3,29.9c0.5,0,0.8,0.4,0.8,0.8c0,0.5-0.4,0.8-0.8,0.8c-0.5,0-0.8-0.4-0.8-0.8S325.9,29.9,326.3,29.9
			L326.3,29.9z"/>
	</g>
	<path class="st1" d="M326.3,134.5c3,0,5.4,2.4,5.4,5.4s-2.4,5.4-5.4,5.4s-5.4-2.4-5.4-5.4S323.3,134.5,326.3,134.5L326.3,134.5z
		 M326.3,134.1c3.2,0,5.8,2.6,5.8,5.8s-2.6,5.8-5.8,5.8c-3.2,0-5.8-2.6-5.8-5.8C320.5,136.7,323.1,134.1,326.3,134.1L326.3,134.1z"
		/>
</g>
<path class="st2" d="M325.5,108c-14.6,0-26.5-11.5-26.5-25.7c0-0.1,0-0.3,0-0.3h53c0,0,0,0.2,0,0.3C352,96.5,340.1,108,325.5,108z"
	/>
<g>
	<path class="st4" d="M107.3,118.7h-0.8l-0.2-0.9c-0.7,0.8-1.3,1-2.2,1c-2.2,0-3.5-1.7-3.5-3.8c0-2.1,1.3-3.8,3.5-3.8
		c1.6,0,2.9,0.8,3.1,2.5H106c-0.1-0.9-0.9-1.4-1.9-1.4c-1.6,0-2.2,1.4-2.2,2.8s0.7,2.8,2.2,2.8c1.3,0,2-0.8,2-2h-1.9v-1h3.1V118.7z"
		/>
	<path class="st4" d="M115.1,115.1c0,2.1-1.3,3.8-3.5,3.8s-3.5-1.7-3.5-3.8c0-2.1,1.3-3.8,3.5-3.8S115.1,113,115.1,115.1z
		 M109.4,115.1c0,1.4,0.7,2.8,2.2,2.8s2.2-1.4,2.2-2.8s-0.7-2.8-2.2-2.8S109.4,113.7,109.4,115.1z"/>
	<path class="st4" d="M122.8,115.1c0,2.1-1.3,3.8-3.5,3.8s-3.5-1.7-3.5-3.8c0-2.1,1.3-3.8,3.5-3.8S122.8,113,122.8,115.1z
		 M117.1,115.1c0,1.4,0.7,2.8,2.2,2.8s2.2-1.4,2.2-2.8s-0.7-2.8-2.2-2.8S117.1,113.7,117.1,115.1z"/>
	<path class="st4" d="M123.7,111.4h3c2.2,0,3.2,1.6,3.2,3.6s-1,3.6-3.2,3.6h-3V111.4z M125,117.7h1.3c2,0,2.4-1.1,2.4-2.6
		s-0.4-2.6-2.4-2.6H125V117.7z"/>
</g>
<g>
	<path class="st4" d="M109,150.5c0,2.1-1.3,3.8-3.5,3.8s-3.5-1.7-3.5-3.8c0-2.1,1.3-3.8,3.5-3.8S109,148.4,109,150.5z M103.4,150.5
		c0,1.4,0.7,2.8,2.2,2.8s2.2-1.4,2.2-2.8c0-1.4-0.7-2.8-2.2-2.8S103.4,149.1,103.4,150.5z"/>
	<path class="st4" d="M110,146.8h1.3v3.3l3.2-3.3h1.6l-2.9,2.9l3.1,4.4h-1.6l-2.4-3.5l-1,1v2.4H110V146.8z"/>
	<path class="st4" d="M119.4,146.8h1.4l2.8,7.3h-1.4l-0.7-1.9h-2.9l-0.7,1.9h-1.3L119.4,146.8z M118.9,151.2h2.2l-1.1-3.1h0
		L118.9,151.2z"/>
	<path class="st4" d="M125,151.2l-2.7-4.4h1.5l1.9,3.3l1.9-3.3h1.4l-2.7,4.4v2.8H125V151.2z"/>
</g>
<g>
	<path class="st4" d="M103,47.1h3.5c1.3,0,2.2,0.6,2.2,1.8c0,0.7-0.4,1.3-1,1.5v0c0.9,0.2,1.4,0.9,1.4,1.9c0,1.1-0.8,2-2.7,2H103
		V47.1z M104.3,50.1h2.1c0.6,0,1.1-0.4,1.1-1c0-0.7-0.4-1-1.1-1h-2.1V50.1z M104.3,53.3h2.2c0.8,0,1.2-0.4,1.2-1.1
		c0-0.7-0.4-1.1-1.2-1.1h-2.2V53.3z"/>
	<path class="st4" d="M110,47.1h5.2v1.1h-4v1.9h3.7v1h-3.7v2.1h4v1.1H110V47.1z"/>
	<path class="st4" d="M117.2,51.9c0,1.1,0.8,1.6,1.8,1.6c1.1,0,1.5-0.6,1.5-1.1c0-0.6-0.3-0.8-0.6-0.9c-0.5-0.2-1.2-0.3-2.2-0.6
		c-1.3-0.3-1.6-1.1-1.6-1.8c0-1.5,1.3-2.1,2.7-2.1c1.5,0,2.8,0.8,2.8,2.3h-1.3c-0.1-0.9-0.7-1.3-1.6-1.3c-0.6,0-1.3,0.2-1.3,0.9
		c0,0.5,0.3,0.8,0.9,0.9c0.1,0,1.7,0.4,2.1,0.6c0.9,0.3,1.4,1.1,1.4,1.9c0,1.6-1.5,2.3-2.9,2.3c-1.7,0-3-0.8-3-2.6H117.2z"/>
	<path class="st4" d="M122.1,47.1h5.9v1.1h-2.3v6.2h-1.3v-6.2h-2.3V47.1z"/>
</g>
</svg>
