<svg xmlns="http://www.w3.org/2000/svg" xmlns:xlink="http://www.w3.org/1999/xlink" viewBox="656 1570 280 176"><defs><style>.a{clip-path:url(#b);}.b,.c,.d{fill:none;}.b{stroke:#d6d7d9;}.b,.c{stroke-width:8px;}.c{stroke:#aeb0b5;}.e{fill:#5b616a;fill-rule:evenodd;}.f{fill:#fff;}</style><clipPath id="b"><rect x="656" y="1570" width="280" height="176"/></clipPath></defs><g id="a" class="a"><rect class="f" x="656" y="1570" width="280" height="176"/><g transform="translate(-429.5 1088)"><path class="b" d="M0,1.5H44.175" transform="translate(1127.5 568.018)"/><path class="b" d="M0,1.5H61.251" transform="translate(1191.845 568.018)"/><path class="c" d="M0,1.5H49.62" transform="translate(1274.75 568.018)"/><g transform="translate(1170.19 559)"><rect class="d" width="21.407" height="21.407" transform="translate(0 0)"/><path class="e" d="M8.6,7.249,9.849,6,15.2,11.352,9.849,16.7,8.6,15.455l4.1-4.1Z" transform="translate(-0.929 -0.648)"/></g><g transform="translate(1253.096 559)"><rect class="d" width="21.407" height="21.407" transform="translate(0 0)"/><path class="e" d="M8.6,7.249,9.849,6,15.2,11.352,9.849,16.7,8.6,15.455l4.1-4.1Z" transform="translate(-0.929 -0.648)"/></g></g></g></svg>