<?xml version="1.0" encoding="UTF-8"?>
<svg width="114px" height="42px" viewBox="0 0 114 42" version="1.1" xmlns="http://www.w3.org/2000/svg" xmlns:xlink="http://www.w3.org/1999/xlink">
    <!-- Generator: Sketch 51.2 (57519) - http://www.bohemiancoding.com/sketch -->
    <title>Checkbox</title>
    <desc>Created with Sketch.</desc>
    <defs></defs>
    <g id="Page-1" stroke="none" stroke-width="1" fill="none" fill-rule="evenodd">
        <g id="Overview_illustrationer" transform="translate(-543.000000, -807.000000)">
            <g id="Checkbox" transform="translate(540.000000, 804.000000)">
                <g id="Marked-checkbox-large" transform="translate(72.000000, 0.000000)">
                    <rect id="Bounding-box" x="0" y="0" width="48" height="48"></rect>
                    <rect id="Path" fill="#FFFFFF" x="3.6" y="3.6" width="40.8" height="40.8" rx="2"></rect>
                    <path d="M5.6,3.6 L42.4,3.6 C43.5045695,3.6 44.4,4.4954305 44.4,5.6 L44.4,42.4 C44.4,43.5045695 43.5045695,44.4 42.4,44.4 L5.6,44.4 C4.4954305,44.4 3.6,43.5045695 3.6,42.4 L3.6,5.6 C3.6,4.4954305 4.4954305,3.6 5.6,3.6 Z M35.9972246,13.330558 L20.3089504,29.0188322 L12.0027754,20.7126571 L8.79722463,23.9182079 L20.3089504,35.4299337 L39.2027754,16.5361087 L35.9972246,13.330558 Z" id="Box" fill="#454545"></path>
                </g>
                <g id="Unmarked-checkbox-large">
                    <rect id="Rectangle-3" x="0" y="0" width="48" height="48"></rect>
                    <rect id="Path" fill="#FFFFFF" x="3.6" y="3.6" width="40.8" height="40.8" rx="2"></rect>
                    <path d="M6.1,6.1 L6.1,41.9 L41.9,41.9 L41.9,6.1 L6.1,6.1 Z M5.6,3.6 L42.4,3.6 C43.5045695,3.6 44.4,4.4954305 44.4,5.6 L44.4,42.4 C44.4,43.5045695 43.5045695,44.4 42.4,44.4 L5.6,44.4 C4.4954305,44.4 3.6,43.5045695 3.6,42.4 L3.6,5.6 C3.6,4.4954305 4.4954305,3.6 5.6,3.6 Z" id="Box" fill="#454545" fill-rule="nonzero"></path>
                </g>
            </g>
        </g>
    </g>
</svg>