<svg xmlns="http://www.w3.org/2000/svg" xmlns:xlink="http://www.w3.org/1999/xlink" viewBox="1276 1570 280 176">
  <defs>
    <style>
      .cls-1 {
        clip-path: url(#clip-Data_table);
      }

      .cls-2 {
        fill: #fff;
      }

      .cls-3 {
        fill: #f1f1f1;
      }

      .cls-4, .cls-5, .cls-8, .cls-9 {
        fill: none;
      }

      .cls-4 {
        stroke: #d6d7d9;
        opacity: 0.7;
      }

      .cls-4, .cls-7, .cls-8 {
        stroke-width: 4px;
      }

      .cls-6 {
        fill: #aeb0b5;
      }

      .cls-7 {
        fill: #5b616a;
      }

      .cls-7, .cls-8 {
        stroke: #5b616a;
        opacity: 0.3;
      }

      .cls-10 {
        fill: #94979e;
        fill-rule: evenodd;
      }

      .cls-11, .cls-12 {
        stroke: none;
      }

      .cls-12 {
        fill: #d6d7d9;
      }
    </style>
    <clipPath id="clip-Data_table">
      <rect x="1276" y="1570" width="280" height="176"/>
    </clipPath>
  </defs>
  <g id="Data_table" data-name="Data table" class="cls-1">
    <rect class="cls-3" x="1276" y="1570" width="280" height="176"/>
    <rect id="Rectangle_37" data-name="Rectangle 37" class="cls-2" width="182" height="95" transform="translate(1325 1611)"/>
    <g id="Group_30" data-name="Group 30" transform="translate(1297 1581.016)">
      <g id="Group_7" data-name="Group 7" transform="translate(28 30)">
        <rect id="Rectangle_9" data-name="Rectangle 9" class="cls-3" width="181.746" height="12.989" transform="translate(0 17.048)"/>
        <rect id="Rectangle_16" data-name="Rectangle 16" class="cls-3" width="181.746" height="12.989" transform="translate(0 43.027)"/>
        <rect id="Rectangle_18" data-name="Rectangle 18" class="cls-3" width="181.746" height="12.989" transform="translate(0 69.005)"/>
        <g id="Group_6" data-name="Group 6" transform="translate(7.306 23.949)">
          <line id="Line_19" data-name="Line 19" class="cls-4" x2="51.551"/>
          <path id="Path_29" data-name="Path 29" class="cls-4" d="M0,0H28.82" transform="translate(100.666)"/>
          <path id="Path_30" data-name="Path 30" class="cls-4" d="M0,0H17.454" transform="translate(100.666 12.989)"/>
          <path id="Path_31" data-name="Path 31" class="cls-4" d="M0,0H25.573" transform="translate(100.666 25.978)"/>
          <path id="Path_32" data-name="Path 32" class="cls-4" d="M0,0H35.314" transform="translate(100.666 38.968)"/>
          <path id="Path_33" data-name="Path 33" class="cls-4" d="M0,0H17.454" transform="translate(100.666 51.957)"/>
          <path id="Path_34" data-name="Path 34" class="cls-4" d="M0,0H25.573" transform="translate(100.666 64.134)"/>
          <line id="Line_21" data-name="Line 21" class="cls-4" x2="75.906" transform="translate(0 12.989)"/>
          <path id="Path_25" data-name="Path 25" class="cls-4" d="M0,0H71.847" transform="translate(0 25.978)"/>
          <path id="Path_26" data-name="Path 26" class="cls-4" d="M0,0H71.847" transform="translate(0.812 51.957)"/>
          <path id="Path_28" data-name="Path 28" class="cls-4" d="M0,0H71.847" transform="translate(0.812 64.134)"/>
          <path id="Path_27" data-name="Path 27" class="cls-4" d="M0,0H58.857" transform="translate(0.812 38.968)"/>
        </g>
        <g id="Path_24" data-name="Path 24" class="cls-5">
          <path class="cls-11" d="M0,0H181.746V94.984H0Z"/>
          <path class="cls-12" d="M 181.2459869384766 94.483642578125 L 181.2459869384766 0.5000069141387939 L 0.5000085830688477 0.5000069141387939 L 0.5000085830688477 94.483642578125 L 181.2459869384766 94.483642578125 M 181.7459869384766 94.983642578125 L 8.567116310587153e-06 94.983642578125 L 8.567116310587153e-06 6.921941803739173e-06 L 181.7459869384766 6.921941803739173e-06 L 181.7459869384766 94.983642578125 Z"/>
        </g>
        <rect id="Rectangle_8" data-name="Rectangle 8" class="cls-6" width="181.746" height="17.048"/>
        <path id="Path_23" data-name="Path 23" class="cls-7" d="M0,0H75.316" transform="translate(7.306 8.524)"/>
        <line id="Line_24" data-name="Line 24" class="cls-8" x2="16.642" transform="translate(108.785 8.524)"/>
      </g>
      <g id="ic_arrow_drop_down" transform="translate(110.806 33.299)">
        <rect id="rectangle" class="cls-9" width="9.69" height="9.69" transform="translate(0 0)"/>
        <path id="path" class="cls-10" d="M7,10l2.019,2.019L11.038,10Z" transform="translate(-4.174 -5.962)"/>
      </g>
    </g>
  </g>
</svg>
