<svg xmlns="http://www.w3.org/2000/svg" xmlns:xlink="http://www.w3.org/1999/xlink" viewBox="1276 1990 280 176"><defs><style>.a{clip-path:url(#b);}.b,.k{fill:#fff;}.c,.j{fill:#d6d7d9;}.c{stroke:#aeb0b5;}.c,.e,.f{stroke-width:6px;}.d,.f{fill:#f1f1f1;}.e,.g{fill:none;}.e,.f{stroke:#d6d7d9;}.h{fill:#979797;fill-rule:evenodd;}.i,.j{stroke:none;}</style><clipPath id="b"><rect x="1276" y="1990" width="280" height="176"/></clipPath></defs><g id="a" class="a"><rect class="k" x="1276" y="1990" width="280" height="176"/><g transform="translate(1276 1967)"><g class="b" transform="translate(81 88)"><path class="i" d="M 117.1084594726563 15.75 L 0.2499989718198776 15.75 L 0.2499989718198776 0.25 L 117.1084594726563 0.25 L 117.1084594726563 15.75 Z"/><path class="j" d="M 116.8584594726563 15.5 L 116.8584594726563 0.5 L 0.4999989569187164 0.5 L 0.4999989569187164 15.5 L 116.8584594726563 15.5 M 117.3584594726563 16 L -1.032902673614444e-06 16 L -1.032902673614444e-06 0 L 117.3584594726563 0 L 117.3584594726563 16 Z"/></g><path class="c" d="M73.605,0" transform="translate(88 96)"/></g><g transform="translate(1276 1982.5)"><g class="d" transform="translate(81 88)"><path class="i" d="M 117.1084594726563 15.75 L 0.2499989718198776 15.75 L 0.2499989718198776 0.25 L 117.1084594726563 0.25 L 117.1084594726563 15.75 Z"/><path class="j" d="M 116.8584594726563 15.5 L 116.8584594726563 0.5 L 0.4999989569187164 0.5 L 0.4999989569187164 15.5 L 116.8584594726563 15.5 M 117.3584594726563 16 L -1.032902673614444e-06 16 L -1.032902673614444e-06 0 L 117.3584594726563 0 L 117.3584594726563 16 Z"/></g><path class="c" d="M73.605,0" transform="translate(88 96)"/></g><g transform="translate(1276 1998)"><g class="d" transform="translate(81 88)"><path class="i" d="M 117.1084594726563 15.75 L 0.2499989718198776 15.75 L 0.2499989718198776 0.25 L 117.1084594726563 0.25 L 117.1084594726563 15.75 Z"/><path class="j" d="M 116.8584594726563 15.5 L 116.8584594726563 0.5 L 0.4999989569187164 0.5 L 0.4999989569187164 15.5 L 116.8584594726563 15.5 M 117.3584594726563 16 L -1.032902673614444e-06 16 L -1.032902673614444e-06 0 L 117.3584594726563 0 L 117.3584594726563 16 Z"/></g><path class="c" d="M73.605,0" transform="translate(88 96)"/></g><path class="e" d="M0,0H58.87" transform="translate(1362 2063)"/><path class="f" d="M0,0H70.963" transform="translate(1362 2079)"/><path class="f" d="M0,0H50.941" transform="translate(1362 2094)"/><rect class="g" width="10" height="10" transform="translate(1458.3 2058.372)"/><path class="h" d="M10.417,8.6,8.5,10.517,6.583,8.6,6,9.183l2.5,2.5,2.5-2.5Z" transform="translate(1454.8 2053.355)"/></g></svg>