<?xml version="1.0" encoding="UTF-8"?>
<svg width="180px" height="120px" viewBox="0 0 180 120" version="1.1" xmlns="http://www.w3.org/2000/svg" xmlns:xlink="http://www.w3.org/1999/xlink">
    <!-- Generator: Sketch 51.2 (57519) - http://www.bohemiancoding.com/sketch -->
    <title>Dropdown</title>
    <desc>Created with Sketch.</desc>
    <defs></defs>
    <g id="Page-1" stroke="none" stroke-width="1" fill="none" fill-rule="evenodd">
        <g id="Overview_illustrationer" transform="translate(-510.000000, -1360.000000)">
            <g id="Dropdown" transform="translate(510.000000, 1360.000000)">
                <rect id="Rectangle-11" fill="#FFFFFF" fill-rule="nonzero" x="0" y="0" width="180" height="120"></rect>
                <rect id="Rectangle-11" fill="#BFBFBF" fill-rule="nonzero" x="0" y="0" width="180" height="24"></rect>
                <rect id="Rectangle-12" fill="#999999" fill-rule="nonzero" x="12" y="8" width="68" height="8"></rect>
                <rect id="Rectangle-7" fill="#F5F5F5" fill-rule="nonzero" x="0" y="24" width="180" height="1"></rect>
                <rect id="Rectangle-10" fill="#F5F5F5" fill-rule="nonzero" x="12" y="36" width="120" height="8"></rect>
                <rect id="Rectangle-10" fill="#F5F5F5" fill-rule="nonzero" x="12" y="56" width="120" height="8"></rect>
                <rect id="Rectangle-10" fill="#F5F5F5" fill-rule="nonzero" x="12" y="76" width="120" height="8"></rect>
                <rect id="Rectangle-10" fill="#F5F5F5" fill-rule="nonzero" x="12" y="96" width="120" height="8"></rect>
                <g id="ic_arrow_dropdown" transform="translate(160.000000, 12.000000) scale(1, -1) translate(-160.000000, -12.000000) translate(148.000000, 0.000000)">
                    <g id="Shape">
                        <polygon points="0 0.24 24 0.24 24 23.28 0 23.28"></polygon>
                        <polygon fill="#454545" points="7.41 8.4864 12 12.8832 16.59 8.4864 18 9.84 12 15.6 6 9.84"></polygon>
                    </g>
                </g>
            </g>
        </g>
    </g>
</svg>