<?xml version="1.0" encoding="UTF-8"?>
<svg width="128px" height="144px" viewBox="0 0 128 144" version="1.1" xmlns="http://www.w3.org/2000/svg" xmlns:xlink="http://www.w3.org/1999/xlink">
    <!-- Generator: Sketch 51.2 (57519) - http://www.bohemiancoding.com/sketch -->
    <title>Form</title>
    <desc>Created with Sketch.</desc>
    <defs></defs>
    <g id="Page-1" stroke="none" stroke-width="1" fill="none" fill-rule="evenodd">
        <g id="Overview_illustrationer" transform="translate(-184.000000, -1644.000000)">
            <g id="Form" transform="translate(184.000000, 1644.000000)">
                <rect id="Rectangle-14" fill="#FFFFFF" fill-rule="nonzero" x="0" y="0" width="128" height="144"></rect>
                <g id="Marked-checkbox-large" transform="translate(12.000000, 116.000000)">
                    <rect id="Path" fill="#FFFFFF" x="0.171428571" y="0.171428571" width="11.6571429" height="11.6571429" rx="2"></rect>
                    <path d="M2.17142857,0.171428571 L9.82857143,0.171428571 C10.9331409,0.171428571 11.8285714,1.06685907 11.8285714,2.17142857 L11.8285714,9.82857143 C11.8285714,10.9331409 10.9331409,11.8285714 9.82857143,11.8285714 L2.17142857,11.8285714 C1.06685907,11.8285714 0.171428571,10.9331409 0.171428571,9.82857143 L0.171428571,2.17142857 C0.171428571,1.06685907 1.06685907,0.171428571 2.17142857,0.171428571 Z M9.42777847,2.95158799 L4.94541441,7.43395205 L2.57222153,5.06075918 L1.65634989,5.97663082 L4.94541441,9.26569533 L10.3436501,3.86745963 L9.42777847,2.95158799 Z" id="Box" fill="#454545"></path>
                </g>
                <g id="Unmarked-checkbox-large" transform="translate(12.000000, 100.000000)" fill="#454545" fill-rule="nonzero">
                    <path d="M2,1.5 C1.72385763,1.5 1.5,1.72385763 1.5,2 L1.5,9.65714286 C1.5,9.93328523 1.72385763,10.1571429 2,10.1571429 L9.65714286,10.1571429 C9.93328523,10.1571429 10.1571429,9.93328523 10.1571429,9.65714286 L10.1571429,2 C10.1571429,1.72385763 9.93328523,1.5 9.65714286,1.5 L2,1.5 Z M2,9.86076132e-32 L9.65714286,9.86076132e-32 C10.7617124,7.78148667e-16 11.6571429,0.8954305 11.6571429,2 L11.6571429,9.65714286 C11.6571429,10.7617124 10.7617124,11.6571429 9.65714286,11.6571429 L2,11.6571429 C0.8954305,11.6571429 6.72236333e-16,10.7617124 -4.4408921e-16,9.65714286 L9.86076132e-32,2 C-1.3527075e-16,0.8954305 0.8954305,-2.41183085e-16 2,9.86076132e-32 Z" id="Box"></path>
                </g>
                <rect id="Rectangle-15" fill="#BFBFBF" fill-rule="nonzero" x="12" y="16" width="60" height="4"></rect>
                <rect id="Rectangle-15" fill="#F5F5F5" fill-rule="nonzero" x="32" y="105" width="60" height="4"></rect>
                <rect id="Rectangle-15" fill="#F5F5F5" fill-rule="nonzero" x="32" y="120" width="60" height="4"></rect>
                <rect id="Rectangle-15" stroke="#999999" stroke-width="2" fill="#FFFFFF" fill-rule="nonzero" x="13" y="29" width="102" height="14" rx="2"></rect>
                <rect id="Rectangle-15" stroke="#999999" stroke-width="2" fill="#FFFFFF" fill-rule="nonzero" x="13" y="53" width="102" height="14" rx="2"></rect>
                <rect id="Rectangle-15" stroke="#999999" stroke-width="2" fill="#FFFFFF" fill-rule="nonzero" x="13" y="77" width="102" height="14" rx="2"></rect>
            </g>
        </g>
    </g>
</svg>