<svg xmlns="http://www.w3.org/2000/svg" xmlns:xlink="http://www.w3.org/1999/xlink" viewBox="1276 1780 280 176">
  <defs>
    <style>
      .cls-1 {
        clip-path: url(#clip-List);
      }

      .cls-2, .cls-3, .cls-7 {
        fill: none;
      }

      .cls-2 {
        stroke: #aeb0b5;
      }

      .cls-2, .cls-3 {
        stroke-width: 6px;
      }

      .cls-3, .cls-5 {
        stroke: #d6d7d9;
      }

      .cls-4 {
        fill: #aeb0b5;
      }

      .cls-5 {
        fill: #d6d7d9;
        stroke-width: 0.5px;
      }

      .cls-6 {
        stroke: none;
      }

      .cls-8 {
        fill: #f1f1f1;
      }
    </style>
    <clipPath id="clip-List">
      <rect x="1276" y="1780" width="280" height="176"/>
    </clipPath>
  </defs>
  <g id="List" class="cls-1">
    <rect class="cls-8" x="1276" y="1780" width="280" height="176"/>
    <path id="Path_36" data-name="Path 36" class="cls-2" d="M58.87,0" transform="translate(1371 1843)"/>
    <line id="Line_32" data-name="Line 32" class="cls-2" x2="101.87" transform="translate(1371 1828)"/>
    <line id="Line_33" data-name="Line 33" class="cls-2" x2="101.87" transform="translate(1371 1844)"/>
    <line id="Line_34" data-name="Line 34" class="cls-2" x2="101.87" transform="translate(1371 1860)"/>
    <line id="Line_35" data-name="Line 35" class="cls-3" x2="92.37" transform="translate(1380.5 1876)"/>
    <line id="Line_39" data-name="Line 39" class="cls-3" x2="92.37" transform="translate(1380.5 1892)"/>
    <line id="Line_37" data-name="Line 37" class="cls-2" x2="101.87" transform="translate(1371 1908)"/>
    <circle id="Ellipse_2" data-name="Ellipse 2" class="cls-4" cx="3" cy="3" r="3" transform="translate(1360 1825)"/>
    <circle id="Ellipse_3" data-name="Ellipse 3" class="cls-4" cx="3" cy="3" r="3" transform="translate(1360 1841)"/>
    <circle id="Ellipse_4" data-name="Ellipse 4" class="cls-4" cx="3" cy="3" r="3" transform="translate(1360 1857)"/>
    <g id="Ellipse_11" data-name="Ellipse 11" class="cls-5" transform="translate(1371 1873)">
      <circle class="cls-6" cx="3" cy="3" r="3"/>
      <circle class="cls-7" cx="3" cy="3" r="2.75"/>
    </g>
    <g id="Ellipse_12" data-name="Ellipse 12" class="cls-5" transform="translate(1371 1889)">
      <circle class="cls-6" cx="3" cy="3" r="3"/>
      <circle class="cls-7" cx="3" cy="3" r="2.75"/>
    </g>
    <circle id="Ellipse_7" data-name="Ellipse 7" class="cls-4" cx="3" cy="3" r="3" transform="translate(1360 1905)"/>
  </g>
</svg>
