<svg xmlns="http://www.w3.org/2000/svg" xmlns:xlink="http://www.w3.org/1999/xlink" viewBox="656 1990 280 176"><defs><style>.a{clip-path:url(#b);}.b{fill:#d6d7d9;stroke:#d6d7d9;}.c,.d,.e,.f,.g{fill:none;}.d{stroke:#aeb0b5;stroke-width:0.5px;}.e{stroke:#f1f1f1;}.e,.f{stroke-width:6px;}.f{stroke:#979797;}.h{fill:#5b616a;fill-rule:evenodd;}.i,.j{stroke:none;}.j{fill:#aeb0b5;}.k{fill:#fff;}</style><clipPath id="b"><rect x="656" y="1990" width="280" height="176"/></clipPath></defs><g id="a" class="a"><rect class="k" x="656" y="1990" width="280" height="176"/><g transform="translate(636 1992)"><g class="b" transform="translate(88 40)"><rect class="i" width="144" height="16"/><rect class="g" x="0.5" y="0.5" width="143" height="15"/></g><g class="c" transform="translate(88 40)"><path class="i" d="M0,0H144V92.222H0Z"/><path class="j" d="M 143.5 91.7222900390625 L 143.5 0.4999995529651642 L 0.5 0.4999995529651642 L 0.5 91.7222900390625 L 143.5 91.7222900390625 M 144 92.2222900390625 L 0 92.2222900390625 L 0 -4.350142148723535e-07 L 144 -4.350142148723535e-07 L 144 92.2222900390625 Z"/></g><line class="d" x2="144" transform="translate(88 56)"/><line class="e" x2="44.5" transform="translate(96 67.5)"/><line class="e" x2="123.5" transform="translate(96 77.5)"/><line class="e" x2="89.5" transform="translate(96 87.5)"/><line class="e" x2="21.5" transform="translate(96 120)"/><line class="f" x2="21.5" transform="translate(96 112)"/><g transform="translate(-266 -35)"><rect class="g" width="10" height="10" transform="translate(485 78)"/><path class="h" d="M10.833,5.583,10.25,5,7.917,7.333,5.583,5,5,5.583,7.333,7.917,5,10.25l.583.583L7.917,8.5l2.333,2.333.583-.583L8.5,7.917Z" transform="translate(482.083 75.083)"/></g></g></g></svg>