<?xml version="1.0" encoding="UTF-8"?>
<svg width="168px" height="104px" viewBox="0 0 168 104" version="1.1" xmlns="http://www.w3.org/2000/svg" xmlns:xlink="http://www.w3.org/1999/xlink">
    <!-- Generator: Sketch 51.2 (57519) - http://www.bohemiancoding.com/sketch -->
    <title>Modal</title>
    <desc>Created with Sketch.</desc>
    <defs></defs>
    <g id="Page-1" stroke="none" stroke-width="1" fill="none" fill-rule="evenodd">
        <g id="Overview_illustrationer" transform="translate(-164.000000, -1966.000000)">
            <g id="Modal" transform="translate(164.000000, 1966.000000)">
                <rect id="Rectangle-18" fill="#FFFFFF" fill-rule="nonzero" x="0" y="0" width="168" height="104"></rect>
                <g id="ic_close" transform="translate(140.000000, 8.000000)">
                    <g id="Shape">
                        <polygon fill="#454545" points="15.8333333 5.34166667 14.6583333 4.16666667 10 8.825 5.34166667 4.16666667 4.16666667 5.34166667 8.825 10 4.16666667 14.6583333 5.34166667 15.8333333 10 11.175 14.6583333 15.8333333 15.8333333 14.6583333 11.175 10"></polygon>
                        <polygon points="0 0 20 0 20 20 0 20"></polygon>
                    </g>
                </g>
                <rect id="Rectangle-10" fill="#999999" fill-rule="nonzero" x="24" y="24" width="56" height="8"></rect>
                <rect id="Rectangle-10" fill="#F5F5F5" fill-rule="nonzero" x="24" y="40" width="120" height="8"></rect>
                <rect id="Rectangle-10" fill="#F5F5F5" fill-rule="nonzero" x="24" y="56" width="120" height="8"></rect>
                <rect id="Rectangle-10" fill="#F5F5F5" fill-rule="nonzero" x="24" y="72" width="96" height="8"></rect>
            </g>
        </g>
    </g>
</svg>