<svg xmlns="http://www.w3.org/2000/svg" xmlns:xlink="http://www.w3.org/1999/xlink" viewBox="656 2200 280 176"><defs><style>.a{clip-path:url(#b);}.b,.e{fill:#f1f1f1;}.c{fill:#d6d7d9;stroke:#aeb0b5;}.c,.d,.e{stroke-width:6px;}.d{fill:#aeb0b5;}.d,.f{stroke:#d6d7d9;}.e{stroke:#f1f1f1;}.f{fill:none;stroke-width:0.5px;}.g{fill:#fff;}</style><clipPath id="b"><rect x="656" y="2200" width="280" height="176"/></clipPath></defs><g id="a" class="a"><rect class="g" x="656" y="2200" width="280" height="176"/><g transform="translate(714 2200)"><g transform="translate(-55.75 -15.75)"><g transform="translate(-1 -8)"><path class="b" d="M0,0H116V16H0Z" transform="translate(81 88)"/><path class="c" d="M73.605,0" transform="translate(87.067 96)"/></g><path class="d" d="M0,0H51.807" transform="translate(89 88)"/><path class="e" d="M0,0H47.714" transform="translate(89 104)"/><path class="e" d="M0,0H54.392" transform="translate(89 120)"/><path class="e" d="M0,0H41.252" transform="translate(89 136)"/><path class="e" d="M0,0H58.87" transform="translate(89 72)"/><line class="f" x2="116" transform="translate(80 80)"/><line class="f" x2="116" transform="translate(80 96)"/><line class="f" x2="116" transform="translate(80 112)"/><line class="f" x2="116" transform="translate(80 128)"/><line class="f" x2="116" transform="translate(80 64)"/><line class="f" x2="116" transform="translate(80 144)"/></g><line class="f" y2="80" transform="translate(140 48)"/><line class="f" y2="80" transform="translate(24 48)"/></g></g></svg>