<svg xmlns="http://www.w3.org/2000/svg" xmlns:xlink="http://www.w3.org/1999/xlink" viewBox="656 2606 280 176"><defs><style>.a{clip-path:url(#b);}.b,.g{fill:#fff;}.b,.d,.e,.f{stroke:#d6d7d9;}.b,.c,.f{stroke-width:0.5px;}.c{fill:#f1f1f1;stroke:#f1f1f1;}.d{fill:#979797;}.d,.e{stroke-width:4px;}.e{fill:#d6d7d9;}.f,.i{fill:none;}.h{stroke:none;}</style><clipPath id="b"><rect x="656" y="2606" width="280" height="176"/></clipPath></defs><g id="a" class="a"><rect class="g" x="656" y="2606" width="280" height="176"/><g class="b" transform="translate(728 2688)"><path class="h" d="M2,0H42.21a2,2,0,0,1,2,2V12a0,0,0,0,1,0,0H0a0,0,0,0,1,0,0V2A2,2,0,0,1,2,0Z"/><path class="i" d="M2,.25H42.21A1.75,1.75,0,0,1,43.96,2v9.5a.25.25,0,0,1-.25.25H.5a.25.25,0,0,1-.25-.25V2A1.75,1.75,0,0,1,2,.25Z"/></g><g class="c" transform="translate(774 2688)"><path class="h" d="M2,0H42.21a2,2,0,0,1,2,2V12.25a0,0,0,0,1,0,0H0a0,0,0,0,1,0,0V2A2,2,0,0,1,2,0Z"/><path class="i" d="M2,.25H42.21A1.75,1.75,0,0,1,43.96,2v9.75a.25.25,0,0,1-.25.25H.5a.25.25,0,0,1-.25-.25V2A1.75,1.75,0,0,1,2,.25Z"/></g><g class="c" transform="translate(820 2688)"><path class="h" d="M2,0H42.21a2,2,0,0,1,2,2V12.25a0,0,0,0,1,0,0H0a0,0,0,0,1,0,0V2A2,2,0,0,1,2,0Z"/><path class="i" d="M2,.25H42.21A1.75,1.75,0,0,1,43.96,2v9.75a.25.25,0,0,1-.25.25H.5a.25.25,0,0,1-.25-.25V2A1.75,1.75,0,0,1,2,.25Z"/></g><path class="d" d="M0,0H30" transform="translate(735.002 2694.25)"/><path class="e" d="M0,0H30" transform="translate(781.002 2694.25)"/><path class="d" d="M0,0H30" transform="translate(827.002 2694.25)"/><line class="f" x1="167" transform="translate(712.5 2700)"/><rect class="g" width="43.2" height="5" transform="translate(728.5 2698.25)"/></g></svg>