<svg xmlns="http://www.w3.org/2000/svg" xmlns:xlink="http://www.w3.org/1999/xlink" viewBox="656 1780 280 176">
  <defs>
    <style>
      .cls-1 {
        clip-path: url(#clip-Topmenu);
      }

      .cls-2, .cls-4 {
        fill: #fff;
      }

      .cls-3 {
        fill: #f1f1f1;
      }

      .cls-10, .cls-5, .cls-8 {
        fill: none;
      }

      .cls-5 {
        stroke: #d6d7d9;
      }

      .cls-10, .cls-5 {
        stroke-width: 0.5px;
      }

      .cls-6, .cls-9 {
        fill: #979797;
      }

      .cls-6 {
        stroke: #aeb0b5;
      }

      .cls-6, .cls-7 {
        stroke-width: 4px;
      }

      .cls-12, .cls-7 {
        fill: #d6d7d9;
      }

      .cls-10, .cls-7 {
        stroke: #f1f1f1;
      }

      .cls-9 {
        fill-rule: evenodd;
      }

      .cls-11, .cls-12 {
        stroke: none;
      }
    </style>
    <clipPath id="clip-Topmenu">
      <rect x="656" y="1780" width="280" height="176"/>
    </clipPath>
  </defs>
  <g id="Topmenu" class="cls-1">
    <rect class="cls-3" x="656" y="1780" width="280" height="176"/>
    <rect id="Rectangle_38" data-name="Rectangle 38" class="cls-2" width="227" height="12" transform="translate(682 1822)"/>
    <rect id="Rectangle_27" data-name="Rectangle 27" class="cls-3" width="57.21" height="12" transform="translate(697.469 1822)"/>
    <g id="Path_80" data-name="Path 80" class="cls-4" transform="translate(697.469 1822.25)">
      <path class="cls-11" d="M 56.9599609375 58.5 L 0.2500004768371582 58.5 L 0.2500004768371582 0.25 L 56.9599609375 0.25 L 56.9599609375 58.5 Z"/>
      <path class="cls-12" d="M 56.7099609375 58.25 L 56.7099609375 0.5 L 0.5000004768371582 0.5 L 0.5000004768371582 58.25 L 56.7099609375 58.25 M 57.2099609375 58.75 L 4.68749988158379e-07 58.75 L 4.68749988158379e-07 -3.552713678800501e-15 L 57.2099609375 -3.552713678800501e-15 L 57.2099609375 58.75 Z"/>
    </g>
    <line id="Line_58" data-name="Line 58" class="cls-5" x2="227.102" transform="translate(682 1822.25)"/>
    <line id="Line_62" data-name="Line 62" class="cls-5" x2="57.21" transform="translate(697.469 1845.25)"/>
    <line id="Line_64" data-name="Line 64" class="cls-5" x2="57.21" transform="translate(697.469 1869.25)"/>
    <line id="Line_59" data-name="Line 59" class="cls-5" x2="227.102" transform="translate(682 1834.25)"/>
    <line id="Line_63" data-name="Line 63" class="cls-5" x2="57.21" transform="translate(697.469 1857.25)"/>
    <path id="Path_65" data-name="Path 65" class="cls-6" d="M0,0H30" transform="translate(703.471 1828.25)"/>
    <path id="Path_78" data-name="Path 78" class="cls-6" d="M0,0H30" transform="translate(762.471 1828.25)"/>
    <path id="Path_79" data-name="Path 79" class="cls-6" d="M0,0H30" transform="translate(816.471 1828.25)"/>
    <path id="Path_69" data-name="Path 69" class="cls-7" d="M0,0H43.129" transform="translate(705.429 1840)"/>
    <path id="Path_70" data-name="Path 70" class="cls-7" d="M0,0H38.657" transform="translate(705.429 1851.25)"/>
    <path id="Path_71" data-name="Path 71" class="cls-7" d="M0,0H30.538" transform="translate(705.429 1863.25)"/>
    <path id="Path_72" data-name="Path 72" class="cls-7" d="M0,0H38.657" transform="translate(705.429 1875.25)"/>
    <g id="ic_expand_more" transform="translate(156 1746.75)">
      <rect id="rectangle" class="cls-8" width="7.123" height="7.123" transform="translate(588 78)"/>
      <path id="path" class="cls-9" d="M9.146,8.6,7.781,9.965,6.415,8.6,6,9.015,7.781,10.8,9.561,9.015Z" transform="translate(583.781 71.952)"/>
    </g>
    <g id="ic_expand_more-2" data-name="ic_expand_more" transform="translate(207 1746.75)">
      <rect id="rectangle-2" data-name="rectangle" class="cls-8" width="7.123" height="7.123" transform="translate(588 78)"/>
      <path id="path-2" data-name="path" class="cls-9" d="M9.146,8.6,7.781,9.965,6.415,8.6,6,9.015,7.781,10.8,9.561,9.015Z" transform="translate(583.781 71.952)"/>
    </g>
    <g id="ic_expand_more-3" data-name="ic_expand_more" transform="translate(261 1746.75)">
      <rect id="rectangle-3" data-name="rectangle" class="cls-8" width="7.123" height="7.123" transform="translate(588 78)"/>
      <path id="path-3" data-name="path" class="cls-9" d="M9.146,8.6,7.781,9.965,6.415,8.6,6,9.015,7.781,10.8,9.561,9.015Z" transform="translate(583.781 71.952)"/>
    </g>
    <line id="Line_60" data-name="Line 60" class="cls-10" y2="11.5" transform="translate(807.5 1822.5)"/>
    <line id="Line_61" data-name="Line 61" class="cls-10" y2="11.5" transform="translate(861.5 1822.5)"/>
  </g>
</svg>
