<?xml version="1.0" encoding="UTF-8"?>
<svg width="224px" height="72px" viewBox="0 0 224 72" version="1.1" xmlns="http://www.w3.org/2000/svg" xmlns:xlink="http://www.w3.org/1999/xlink">
    <!-- Generator: Sketch 51.2 (57519) - http://www.bohemiancoding.com/sketch -->
    <title>Beskeder</title>
    <desc>Created with Sketch.</desc>
    <defs></defs>
    <g id="Page-1" stroke="none" stroke-width="1" fill="none" fill-rule="evenodd">
        <g id="Overview_illustrationer" transform="translate(-840.000000, -792.000000)">
            <g id="Beskeder" transform="translate(840.000000, 792.000000)">
                <rect id="Rectangle-8" fill="#454545" fill-rule="nonzero" x="0" y="0" width="8" height="72"></rect>
                <rect id="Rectangle-9" fill="#FFFFFF" fill-rule="nonzero" x="8" y="0" width="216" height="72"></rect>
                <path d="M29,23 L31,23 L31,25 L29,25 L29,23 Z M29,15 L31,15 L31,21 L29,21 L29,15 Z M29.99,10 C24.47,10 20,14.48 20,20 C20,25.52 24.47,30 29.99,30 C35.52,30 40,25.52 40,20 C40,14.48 35.52,10 29.99,10 L29.99,10 Z M30,28 C25.58,28 22,24.42 22,20 C22,15.58 25.58,12 30,12 C34.42,12 38,15.58 38,20 C38,24.42 34.42,28 30,28 L30,28 Z" id="Shape" fill="#454545"></path>
                <rect id="Rectangle-10" fill="#999999" fill-rule="nonzero" x="54" y="16" width="56" height="8"></rect>
                <rect id="Rectangle-10" fill="#F5F5F5" fill-rule="nonzero" x="54" y="32" width="144" height="8"></rect>
                <rect id="Rectangle-10" fill="#F5F5F5" fill-rule="nonzero" x="54" y="48" width="120" height="8"></rect>
            </g>
        </g>
    </g>
</svg>