<?xml version="1.0" encoding="UTF-8"?>
<svg width="184px" height="40px" viewBox="0 0 184 40" version="1.1" xmlns="http://www.w3.org/2000/svg" xmlns:xlink="http://www.w3.org/1999/xlink">
    <!-- Generator: Sketch 51.2 (57519) - http://www.bohemiancoding.com/sketch -->
    <title>Ikoner</title>
    <desc>Created with Sketch.</desc>
    <defs></defs>
    <g id="Page-1" stroke="none" stroke-width="1" fill="none" fill-rule="evenodd">
        <g id="Overview_illustrationer" transform="translate(-860.000000, -216.000000)">
            <g id="Ikoner" transform="translate(860.000000, 216.000000)">
                <g id="ic_outline_error" transform="translate(144.000000, 0.000000)">
                    <g>
                        <circle id="Oval" fill="#FFFFFF" fill-rule="nonzero" cx="20" cy="20" r="20"></circle>
                        <path d="M18,26 L22,26 L22,30 L18,30 L18,26 Z M18,10 L22,10 L22,22 L18,22 L18,10 Z M19.98,0 C8.94,0 0,8.96 0,20 C0,31.04 8.94,40 19.98,40 C31.04,40 40,31.04 40,20 C40,8.96 31.04,0 19.98,0 L19.98,0 Z M20,36 C11.16,36 4,28.84 4,20 C4,11.16 11.16,4 20,4 C28.84,4 36,11.16 36,20 C36,28.84 28.84,36 20,36 L20,36 Z" id="Shape" fill="#454545"></path>
                    </g>
                </g>
                <g id="ic_outline_success" transform="translate(72.000000, 0.000000)">
                    <g>
                        <circle id="Oval" fill="#FFFFFF" fill-rule="nonzero" cx="20" cy="20" r="20"></circle>
                        <path d="M0,20 C0,31.06 8.94,40 20,40 C31.06,40 40,31.06 40,20 C40,8.94 31.06,0 20,0 C8.94,0 0,8.94 0,20 Z M4,20 C4,11.18 11.18,4 20,4 C28.82,4 36,11.18 36,20 C36,28.82 28.82,36 20,36 C11.18,36 4,28.82 4,20 Z M10.8651367,18.9230175 L8.05238218,21.72415 L16.6962246,30.3686461 L31.2903101,15.7759514 L28.4882776,12.9822198 L16.6962246,24.7686461 L10.8651367,18.9230175 Z" id="Shape" fill="#454545"></path>
                    </g>
                </g>
                <g id="ic_outline_help">
                    <g>
                        <circle id="Oval" fill="#FFFFFF" fill-rule="nonzero" cx="20" cy="20" r="20"></circle>
                        <path d="M18,32 L22,32 L22,28 L18,28 L18,32 L18,32 Z M20,0 C8.96,0 0,8.96 0,20 C0,31.04 8.96,40 20,40 C31.04,40 40,31.04 40,20 C40,8.96 31.04,0 20,0 L20,0 Z M20,36 C11.18,36 4,28.82 4,20 C4,11.18 11.18,4 20,4 C28.82,4 36,11.18 36,20 C36,28.82 28.82,36 20,36 L20,36 Z M20,8 C15.58,8 12,11.58 12,16 L16,16 C16,13.8 17.8,12 20,12 C22.2,12 24,13.8 24,16 C24,20 18,19.5 18,26 L22,26 C22,21.5 28,21 28,16 C28,11.58 24.42,8 20,8 L20,8 Z" id="Shape" fill="#454545"></path>
                    </g>
                </g>
            </g>
        </g>
    </g>
</svg>