<svg xmlns="http://www.w3.org/2000/svg" xmlns:xlink="http://www.w3.org/1999/xlink" viewBox="966 2200 280 176"><defs><style>.a{clip-path:url(#b);}.b,.d,.e{fill:#f1f1f1;}.c{fill:#d6d7d9;stroke:#aeb0b5;}.c,.d,.e,.g{stroke-width:6px;}.d{stroke:#f1f1f1;}.e,.f,.g{stroke:#d6d7d9;}.f,.g,.h{fill:none;}.f{stroke-width:0.5px;}.i{fill:#979797;stroke:#979797;fill-rule:evenodd;}.j{fill:#fff;}</style><clipPath id="b"><rect x="966" y="2200" width="280" height="176"/></clipPath></defs><g id="a" class="a"><rect class="j" x="966" y="2200" width="280" height="176"/><g transform="translate(966 2208)"><g transform="translate(2.25 -15.75)"><g transform="translate(-1 -8)"><path class="b" d="M0,0H116V16H0Z" transform="translate(81 88)"/><path class="c" d="M73.605,0" transform="translate(87.067 96)"/></g><g transform="translate(-1 -24)"><path class="b" d="M0,0H116V16H0Z" transform="translate(81 88)"/><path class="c" d="M73.605,0" transform="translate(87.067 96)"/></g><path class="d" d="M0,0H47.714" transform="translate(89 104)"/><path class="d" d="M0,0H41.219" transform="translate(89 120)"/><path class="e" d="M0,0H47.605" transform="translate(89.264 72)"/><line class="f" x2="116" transform="translate(80 80)"/><line class="f" x2="116" transform="translate(80 96)"/><line class="f" x2="116" transform="translate(80 112)"/><line class="f" x2="116" transform="translate(80 128)"/><line class="f" x2="116" transform="translate(80 64)"/><path class="g" d="M0,0H51.807" transform="translate(89 88)"/></g><line class="f" y2="64.25" transform="translate(198 48)"/><line class="f" y2="64.25" transform="translate(82 48)"/><g transform="translate(-145 -25.245)"><rect class="h" width="7.245" height="7.245" transform="translate(329 78)"/><path class="i" d="M5.091,8.8,3.823,7.532,3.4,7.955,5.091,9.645,8.713,6.023,8.291,5.6Z" transform="translate(326.626 74.091)"/></g><g transform="translate(-145 -10.245)"><rect class="h" width="7.245" height="7.245" transform="translate(329 78)"/><path class="i" d="M5.091,8.8,3.823,7.532,3.4,7.955,5.091,9.645,8.713,6.023,8.291,5.6Z" transform="translate(326.626 74.091)"/></g></g></g></svg>