<?xml version="1.0" encoding="UTF-8"?>
<svg width="191px" height="25px" viewBox="0 0 191 25" version="1.1" xmlns="http://www.w3.org/2000/svg" xmlns:xlink="http://www.w3.org/1999/xlink">
    <!-- Generator: Sketch 51.2 (57519) - http://www.bohemiancoding.com/sketch -->
    <title>Tags</title>
    <desc>Created with Sketch.</desc>
    <defs></defs>
    <g id="Page-1" stroke="none" stroke-width="1" fill="none" fill-rule="evenodd">
        <g id="Overview_illustrationer" transform="translate(-849.000000, -2296.000000)">
            <g id="Tags" transform="translate(849.000000, 2296.000000)">
                <g id="Tag" transform="translate(119.000000, 0.000000)">
                    <rect fill="#454545" x="0" y="0" width="71.76" height="24.96" rx="4.16"></rect>
                    <path d="M17.18912,17.96 L9.75104,17.96 L9.75104,6.34528 L17.18912,6.34528 L17.18912,8.00928 L11.63136,8.00928 L11.63136,11.08768 L16.67328,11.08768 L16.67328,12.75168 L11.63136,12.75168 L11.63136,16.296 L17.18912,16.296 L17.18912,17.96 Z M22.49728,17.96 L21.33248,17.96 C20.10112,17.96 19.48544,17.27776 19.48544,16.16288 L19.48544,5.6464 L21.2992,5.6464 L21.2992,16.47904 L22.49728,16.47904 L22.49728,17.96 Z M27.6224,18.15968 C25.15968,18.15968 23.64544,16.39584 23.64544,13.6336 C23.64544,10.87136 25.15968,9.10752 27.6224,9.10752 C30.16832,9.10752 31.46624,11.02112 31.46624,13.41728 L31.46624,14.09952 L25.52576,14.09952 L25.52576,14.3824 C25.52576,15.7136 26.34112,16.66208 27.80544,16.66208 C28.8704,16.66208 29.58592,16.16288 30.08512,15.36416 L31.15008,16.41248 C30.50112,17.4608 29.23648,18.15968 27.6224,18.15968 Z M27.6224,10.52192 C26.3744,10.52192 25.52576,11.45376 25.52576,12.78496 L25.52576,12.90144 L29.55264,12.90144 L29.55264,12.73504 C29.55264,11.40384 28.82048,10.52192 27.6224,10.52192 Z M33.92896,17.96 L33.92896,10.78816 L32.6144,10.78816 L32.6144,9.3072 L33.92896,9.3072 L33.92896,7.87616 C33.92896,6.4784 34.67776,5.6464 36.12544,5.6464 L37.55648,5.6464 L37.55648,7.12736 L35.74272,7.12736 L35.74272,9.3072 L37.55648,9.3072 L37.55648,10.78816 L35.74272,10.78816 L35.74272,17.96 L33.92896,17.96 Z M46.49216,17.96 L45.47712,17.96 C44.52864,17.96 44.02944,17.36096 43.91296,16.51232 L43.82976,16.51232 C43.49696,17.59392 42.56512,18.15968 41.30048,18.15968 C39.52,18.15968 38.50496,17.14464 38.50496,15.58048 C38.50496,13.86656 39.78624,12.98464 42.19904,12.98464 L43.7632,12.98464 L43.7632,12.25248 C43.7632,11.20416 43.19744,10.58848 41.98272,10.58848 C40.96768,10.58848 40.352,11.08768 39.91936,11.76992 L38.83776,10.78816 C39.40352,9.82304 40.41856,9.10752 42.0992,9.10752 C44.32896,9.10752 45.57696,10.20576 45.57696,12.136 L45.57696,16.47904 L46.49216,16.47904 L46.49216,17.96 Z M41.81632,16.77856 C42.9312,16.77856 43.7632,16.24608 43.7632,15.39744 L43.7632,14.14944 L42.23232,14.14944 C40.96768,14.14944 40.352,14.56544 40.352,15.31424 L40.352,15.61376 C40.352,16.3792 40.91776,16.77856 41.81632,16.77856 Z M50.0864,17.96 L48.27264,17.96 L48.27264,9.3072 L50.0864,9.3072 L50.0864,10.73824 L50.1696,10.73824 C50.53568,9.8064 51.26784,9.10752 52.59904,9.10752 C54.36288,9.10752 55.4112,10.33888 55.4112,12.4688 L55.4112,17.96 L53.59744,17.96 L53.59744,12.70176 C53.59744,11.35392 53.0816,10.67168 51.96672,10.67168 C51.01824,10.67168 50.0864,11.15424 50.0864,12.16928 L50.0864,17.96 Z M61.9008,17.96 L60.32,17.96 C59.072,17.96 58.4064,17.26112 58.4064,16.07968 L58.4064,10.78816 L57.05856,10.78816 L57.05856,9.3072 L57.79072,9.3072 C58.38976,9.3072 58.58944,9.0576 58.58944,8.45856 L58.58944,6.94432 L60.22016,6.94432 L60.22016,9.3072 L62.03392,9.3072 L62.03392,10.78816 L60.22016,10.78816 L60.22016,16.47904 L61.9008,16.47904 L61.9008,17.96 Z" id="Elefant" fill="#FFFFFF"></path>
                </g>
                <g id="Tag-/-Icon">
                    <rect id="Tag" fill="#454545" x="0" y="0" width="110.24" height="24.96" rx="4.16"></rect>
                    <path d="M13.2288,18.15968 C11.28192,18.15968 9.95072,17.39424 8.9856,16.19616 L10.28352,14.98144 C11.09888,15.97984 12.064,16.49568 13.32864,16.49568 C14.8096,16.49568 15.57504,15.76352 15.57504,14.64864 C15.57504,13.75008 15.10912,13.23424 13.76128,12.968 L12.7296,12.78496 C10.4832,12.36896 9.33504,11.32064 9.33504,9.4736 C9.33504,7.41024 10.93248,6.1456 13.3952,6.1456 C15.1424,6.1456 16.42368,6.77792 17.32224,7.92608 L16.00768,9.09088 C15.40864,8.3088 14.57664,7.8096 13.29536,7.8096 C11.96416,7.8096 11.19872,8.35872 11.19872,9.37376 C11.19872,10.33888 11.79776,10.75488 13.04576,11.00448 L14.07744,11.2208 C16.3904,11.67008 17.43872,12.70176 17.43872,14.5488 C17.43872,16.712 15.8912,18.15968 13.2288,18.15968 Z M19.56864,17.96 L19.56864,5.6464 L21.3824,5.6464 L21.3824,13.20096 L21.4656,13.20096 L22.66368,11.65344 L24.74368,9.3072 L26.85696,9.3072 L23.82848,12.65184 L27.22304,17.96 L25.05984,17.96 L22.58048,13.83328 L21.3824,15.1312 L21.3824,17.96 L19.56864,17.96 Z M29.58592,7.75968 C28.83712,7.75968 28.50432,7.36032 28.50432,6.8112 L28.50432,6.52832 C28.50432,5.9792 28.83712,5.57984 29.58592,5.57984 C30.33472,5.57984 30.65088,5.9792 30.65088,6.52832 L30.65088,6.8112 C30.65088,7.36032 30.33472,7.75968 29.58592,7.75968 Z M28.67072,17.96 L28.67072,9.3072 L30.48448,9.3072 L30.48448,17.96 L28.67072,17.96 Z M36.09216,17.96 L34.92736,17.96 C33.696,17.96 33.08032,17.27776 33.08032,16.16288 L33.08032,5.6464 L34.89408,5.6464 L34.89408,16.47904 L36.09216,16.47904 L36.09216,17.96 Z M37.82272,21.288 L37.82272,9.3072 L39.63648,9.3072 L39.63648,10.73824 L39.71968,10.73824 C40.08576,9.70656 41.00096,9.10752 42.14912,9.10752 C44.32896,9.10752 45.5936,10.78816 45.5936,13.6336 C45.5936,16.47904 44.32896,18.15968 42.14912,18.15968 C41.00096,18.15968 40.08576,17.544 39.71968,16.52896 L39.63648,16.52896 L39.63648,21.288 L37.82272,21.288 Z M41.6,16.59552 C42.848,16.59552 43.68,15.7136 43.68,14.3824 L43.68,12.8848 C43.68,11.5536 42.848,10.67168 41.6,10.67168 C40.50176,10.67168 39.63648,11.27072 39.63648,12.15264 L39.63648,15.11456 C39.63648,15.99648 40.50176,16.59552 41.6,16.59552 Z M55.02848,17.96 L54.01344,17.96 C53.06496,17.96 52.56576,17.36096 52.44928,16.51232 L52.36608,16.51232 C52.03328,17.59392 51.10144,18.15968 49.8368,18.15968 C48.05632,18.15968 47.04128,17.14464 47.04128,15.58048 C47.04128,13.86656 48.32256,12.98464 50.73536,12.98464 L52.29952,12.98464 L52.29952,12.25248 C52.29952,11.20416 51.73376,10.58848 50.51904,10.58848 C49.504,10.58848 48.88832,11.08768 48.45568,11.76992 L47.37408,10.78816 C47.93984,9.82304 48.95488,9.10752 50.63552,9.10752 C52.86528,9.10752 54.11328,10.20576 54.11328,12.136 L54.11328,16.47904 L55.02848,16.47904 L55.02848,17.96 Z M50.35264,16.77856 C51.46752,16.77856 52.29952,16.24608 52.29952,15.39744 L52.29952,14.14944 L50.76864,14.14944 C49.504,14.14944 48.88832,14.56544 48.88832,15.31424 L48.88832,15.61376 C48.88832,16.3792 49.45408,16.77856 50.35264,16.77856 Z M62.25024,17.96 L62.25024,16.52896 L62.16704,16.52896 C61.80096,17.544 60.88576,18.15968 59.7376,18.15968 C57.55776,18.15968 56.29312,16.47904 56.29312,13.6336 C56.29312,10.78816 57.55776,9.10752 59.7376,9.10752 C60.88576,9.10752 61.80096,9.70656 62.16704,10.73824 L62.25024,10.73824 L62.25024,5.6464 L64.064,5.6464 L64.064,17.96 L62.25024,17.96 Z M60.28672,16.59552 C61.38496,16.59552 62.25024,15.99648 62.25024,15.11456 L62.25024,12.15264 C62.25024,11.27072 61.38496,10.67168 60.28672,10.67168 C59.03872,10.67168 58.20672,11.5536 58.20672,12.8848 L58.20672,14.3824 C58.20672,15.7136 59.03872,16.59552 60.28672,16.59552 Z M72.10112,17.96 L72.10112,16.52896 L72.01792,16.52896 C71.65184,17.544 70.73664,18.15968 69.58848,18.15968 C67.40864,18.15968 66.144,16.47904 66.144,13.6336 C66.144,10.78816 67.40864,9.10752 69.58848,9.10752 C70.73664,9.10752 71.65184,9.70656 72.01792,10.73824 L72.10112,10.73824 L72.10112,5.6464 L73.91488,5.6464 L73.91488,17.96 L72.10112,17.96 Z M70.1376,16.59552 C71.23584,16.59552 72.10112,15.99648 72.10112,15.11456 L72.10112,12.15264 C72.10112,11.27072 71.23584,10.67168 70.1376,10.67168 C68.8896,10.67168 68.0576,11.5536 68.0576,12.8848 L68.0576,14.3824 C68.0576,15.7136 68.8896,16.59552 70.1376,16.59552 Z M79.90528,18.15968 C77.44256,18.15968 75.92832,16.39584 75.92832,13.6336 C75.92832,10.87136 77.44256,9.10752 79.90528,9.10752 C82.4512,9.10752 83.74912,11.02112 83.74912,13.41728 L83.74912,14.09952 L77.80864,14.09952 L77.80864,14.3824 C77.80864,15.7136 78.624,16.66208 80.08832,16.66208 C81.15328,16.66208 81.8688,16.16288 82.368,15.36416 L83.43296,16.41248 C82.784,17.4608 81.51936,18.15968 79.90528,18.15968 Z M79.90528,10.52192 C78.65728,10.52192 77.80864,11.45376 77.80864,12.78496 L77.80864,12.90144 L81.83552,12.90144 L81.83552,12.73504 C81.83552,11.40384 81.10336,10.52192 79.90528,10.52192 Z" id="Skilpadde" fill="#FFFFFF"></path>
                    <g id="Close-negative" transform="translate(85.280000, 0.000000)">
                        <rect id="Bounding-box" x="0" y="0" width="24.96" height="24.96"></rect>
                        <path d="M13.9507821,12.48 L16.3569564,10.0738258 L14.8861742,8.60304365 L12.48,11.0092179 L10.0738258,8.60304365 L8.60304365,10.0738258 L11.0092179,12.48 L8.60606115,14.8831567 L10.0768433,16.3539389 L12.48,13.9507821 L14.8831567,16.3539389 L16.3539389,14.8831567 L13.9507821,12.48 Z M12.48,19.76 C8.45936702,19.76 5.2,16.500633 5.2,12.48 C5.2,8.45936702 8.45936702,5.2 12.48,5.2 C16.500633,5.2 19.76,8.45936702 19.76,12.48 C19.76,16.500633 16.500633,19.76 12.48,19.76 Z" id="Combined-Shape" fill="#FFFFFF"></path>
                    </g>
                </g>
            </g>
        </g>
    </g>
</svg>